<svg aria-hidden="true" style="position: absolute; width: 0; height: 0; overflow: hidden;" version="1.1" xmlns="http://www.w3.org/2000/svg" xmlns:xlink="http://www.w3.org/1999/xlink">
<defs>
<symbol id="icon-pintrest" viewBox="0 0 32 32">
<path d="M16.297 0.641c-8.523 0-15.434 6.908-15.434 15.427 0 6.315 3.803 11.742 9.24 14.132-0.041-1.074-0.007-2.369 0.269-3.54 0.296-1.253 1.984-8.409 1.984-8.409s-0.496-0.985-0.496-2.438c0-2.287 1.323-3.994 2.976-3.994 1.406 0 2.081 1.054 2.081 2.314 0 1.412-0.903 3.519-1.364 5.475-0.386 1.639 0.82 2.968 2.439 2.968 2.921 0 4.892-3.753 4.892-8.203 0-3.382-2.281-5.909-6.422-5.909-4.678 0-7.6 3.492-7.6 7.39 0 1.343 0.4 2.293 1.020 3.023 0.283 0.337 0.324 0.475 0.22 0.861-0.076 0.282-0.241 0.964-0.317 1.24-0.103 0.393-0.42 0.53-0.772 0.386-2.157-0.882-3.163-3.237-3.163-5.895 0-4.38 3.7-9.635 11.031-9.635 5.891 0 9.77 4.263 9.77 8.836 0 6.054-3.369 10.572-8.33 10.572-1.667 0-3.231-0.902-3.769-1.921 0 0-0.896 3.554-1.089 4.242-0.324 1.191-0.965 2.376-1.55 3.306 1.421 0.419 2.894 0.632 4.375 0.634 8.523 0 15.434-6.908 15.434-15.427s-6.904-15.434-15.427-15.434z"></path>
</symbol>
<symbol id="icon-inst" viewBox="0 0 32 32">
<path d="M21.52 3.883c1.677 0.005 3.284 0.648 4.47 1.791s1.854 2.689 1.859 4.304v12.188c-0.005 1.615-0.673 3.163-1.859 4.305s-2.793 1.786-4.47 1.79h-12.657c-1.677-0.005-3.284-0.649-4.47-1.79s-1.854-2.689-1.859-4.305v-12.188c0.005-1.615 0.673-3.162 1.859-4.304s2.793-1.786 4.47-1.79h12.657zM21.52 1.445h-12.657c-4.873 0-8.861 3.84-8.861 8.532v12.188c0 4.693 3.987 8.532 8.861 8.532h12.657c4.873 0 8.861-3.839 8.861-8.532v-12.188c0-4.693-3.987-8.532-8.861-8.532z"></path>
<path d="M23.419 9.978c-0.376 0-0.743-0.107-1.055-0.308s-0.556-0.486-0.699-0.821c-0.144-0.334-0.181-0.702-0.108-1.056s0.254-0.68 0.52-0.936c0.265-0.256 0.604-0.43 0.972-0.5s0.75-0.034 1.097 0.104c0.347 0.138 0.643 0.373 0.852 0.673s0.32 0.654 0.32 1.016c0.001 0.24-0.048 0.478-0.143 0.7s-0.235 0.424-0.412 0.594c-0.176 0.17-0.386 0.305-0.617 0.396s-0.478 0.139-0.727 0.138zM15.192 11.196c1.001 0 1.98 0.286 2.813 0.822s1.482 1.297 1.865 2.188c0.383 0.891 0.484 1.871 0.288 2.817s-0.677 1.815-1.386 2.497c-0.708 0.682-1.61 1.146-2.592 1.334s-2 0.092-2.925-0.277c-0.925-0.369-1.716-0.994-2.272-1.796s-0.853-1.745-0.853-2.709c0.001-1.293 0.535-2.532 1.485-3.446s2.236-1.428 3.579-1.43zM15.192 8.759c-1.502 0-2.97 0.429-4.219 1.232s-2.222 1.946-2.797 3.282c-0.575 1.336-0.725 2.807-0.432 4.225s1.016 2.722 2.079 3.744c1.062 1.023 2.415 1.719 3.889 2.002s3 0.137 4.388-0.416c1.388-0.554 2.574-1.491 3.408-2.694s1.28-2.617 1.28-4.063c0-1.94-0.8-3.8-2.224-5.171s-3.356-2.142-5.37-2.142z"></path>
</symbol>
<symbol id="icon-fb" viewBox="0 0 32 32">
<path d="M30.537 16.16c0-8.077-6.801-14.627-15.189-14.627s-15.189 6.549-15.189 14.627c0 7.3 5.554 13.351 12.816 14.45v-10.22h-3.858v-4.229h3.858v-3.222c0-3.665 2.268-5.691 5.737-5.691 1.662 0 3.401 0.286 3.401 0.286v3.6h-1.916c-1.886 0-2.476 1.127-2.476 2.285v2.743h4.212l-0.673 4.229h-3.539v10.222c7.262-1.098 12.816-7.149 12.816-14.451z"></path>
</symbol>
<symbol id="icon-email" viewBox="0 0 41 32">
<path stroke-linejoin="round" stroke-linecap="round" stroke-miterlimit="4" stroke-width="2.6667" d="M35.161 2.267h-28.989c-1.906 0-3.451 1.545-3.451 3.451v20.706c0 1.906 1.545 3.451 3.451 3.451h28.989c1.906 0 3.451-1.545 3.451-3.451v-20.706c0-1.906-1.545-3.451-3.451-3.451z"></path>
<path stroke-linejoin="round" stroke-linecap="round" stroke-miterlimit="4" stroke-width="2.6667" d="M8.243 7.79l12.424 9.663 12.424-9.663"></path>
</symbol>
<symbol id="icon-position" viewBox="0 0 24 32">
<path stroke-linejoin="round" stroke-linecap="round" stroke-miterlimit="4" stroke-width="2" d="M11.687 1.333c-5.716 0-10.353 4.345-10.353 9.696 0 6.157 6.902 15.915 9.437 19.285 0.105 0.142 0.243 0.258 0.402 0.338s0.336 0.121 0.514 0.121 0.355-0.042 0.514-0.121c0.159-0.080 0.297-0.196 0.402-0.338 2.534-3.369 9.437-13.123 9.437-19.285 0-5.351-4.637-9.696-10.353-9.696z"></path>
<path stroke-linejoin="round" stroke-linecap="round" stroke-miterlimit="4" stroke-width="2" d="M11.687 16.863c2.287 0 4.141-1.854 4.141-4.141s-1.854-4.141-4.141-4.141c-2.287 0-4.141 1.854-4.141 4.141s1.854 4.141 4.141 4.141z"></path>
</symbol>
<symbol id="icon-time" viewBox="0 0 34 32">
<path stroke-linejoin="miter" stroke-linecap="butt" stroke-miterlimit="10" stroke-width="3" d="M17.719 1.799c-7.885 0-14.282 6.397-14.282 14.282s6.397 14.282 14.282 14.282c7.885 0 14.282-6.397 14.282-14.282s-6.397-14.282-14.282-14.282z"></path>
<path stroke-linejoin="round" stroke-linecap="round" stroke-miterlimit="4" stroke-width="3" d="M17.719 6.56v10.711h7.141"></path>
</symbol>
<symbol id="icon-twiter" viewBox="0 0 38 32">
<path d="M36.971 4.905c-1.374 0.597-2.827 0.99-4.314 1.167 1.563-0.915 2.738-2.369 3.305-4.089-1.478 0.864-3.091 1.47-4.772 1.793-0.708-0.742-1.559-1.332-2.502-1.735s-1.958-0.609-2.983-0.607c-4.152 0-7.511 3.311-7.511 7.392-0.003 0.568 0.062 1.134 0.194 1.686-2.977-0.14-5.892-0.899-8.558-2.23s-5.026-3.203-6.927-5.498c-0.667 1.125-1.020 2.408-1.021 3.715 0 2.563 1.337 4.829 3.357 6.156-1.196-0.028-2.368-0.345-3.416-0.923v0.092c0 3.585 2.594 6.568 6.027 7.247-0.646 0.172-1.311 0.259-1.979 0.259-0.474 0.001-0.947-0.045-1.412-0.137 0.954 2.937 3.732 5.073 7.022 5.134-2.674 2.060-5.956 3.174-9.331 3.166-0.599-0.001-1.198-0.036-1.793-0.107 3.434 2.193 7.425 3.352 11.499 3.341 13.835 0 21.393-11.267 21.393-21.040 0-0.32-0.008-0.641-0.024-0.954 1.467-1.044 2.736-2.34 3.748-3.83z"></path>
</symbol>
</defs>
</svg>
