<svg aria-hidden="true" style="position: absolute; width: 0; height: 0; overflow: hidden;" version="1.1" xmlns="http://www.w3.org/2000/svg" xmlns:xlink="http://www.w3.org/1999/xlink">
<defs>
<symbol id="icon-spotify" viewBox="0 0 32 32">
<path d="M16 0c-8.8 0-16 7.2-16 16s7.2 16 16 16 16-7.2 16-16-7.119-16-16-16zM23.363 23.119c-0.319 0.481-0.881 0.637-1.363 0.319-3.762-2.319-8.481-2.8-14.081-1.519-0.563 0.163-1.037-0.238-1.2-0.719-0.162-0.563 0.237-1.038 0.719-1.2 6.081-1.363 11.363-0.8 15.519 1.762 0.563 0.238 0.644 0.875 0.406 1.356zM25.281 18.719c-0.4 0.563-1.119 0.8-1.681 0.4-4.319-2.637-10.881-3.438-15.919-1.837-0.638 0.163-1.362-0.163-1.519-0.8-0.162-0.637 0.162-1.363 0.8-1.519 5.838-1.762 13.037-0.881 18 2.163 0.475 0.238 0.719 1.038 0.319 1.594zM25.438 14.238c-5.119-3.037-13.681-3.363-18.563-1.838-0.8 0.238-1.6-0.238-1.838-0.963-0.237-0.8 0.237-1.6 0.963-1.838 5.681-1.681 15.038-1.363 20.962 2.162 0.719 0.4 0.962 1.363 0.563 2.081-0.406 0.556-1.363 0.794-2.087 0.394z"></path>
</symbol>
<symbol id="icon-telegram" viewBox="0 0 32 32">
<path d="M16 0c-8.838 0-16 7.162-16 16s7.162 16 16 16 16-7.163 16-16-7.163-16-16-16zM23.863 10.969l-2.625 12.369c-0.181 0.881-0.712 1.087-1.45 0.681l-4-2.956-1.919 1.869c-0.225 0.219-0.4 0.4-0.8 0.4-0.519 0-0.431-0.194-0.606-0.688l-1.363-4.475-3.956-1.231c-0.856-0.262-0.862-0.85 0.194-1.269l15.412-5.95c0.7-0.319 1.381 0.169 1.113 1.25z"></path>
</symbol>
<symbol id="icon-pinterest" viewBox="0 0 32 32">
<path d="M16 2.138c-7.656 0-13.863 6.206-13.863 13.863 0 5.875 3.656 10.887 8.813 12.906-0.119-1.094-0.231-2.781 0.050-3.975 0.25-1.081 1.625-6.887 1.625-6.887s-0.412-0.831-0.412-2.056c0-1.925 1.119-3.369 2.506-3.369 1.181 0 1.756 0.887 1.756 1.95 0 1.188-0.756 2.969-1.15 4.613-0.331 1.381 0.688 2.506 2.050 2.506 2.462 0 4.356-2.6 4.356-6.35 0-3.319-2.387-5.638-5.787-5.638-3.944 0-6.256 2.956-6.256 6.019 0 1.194 0.456 2.469 1.031 3.163 0.113 0.137 0.131 0.256 0.094 0.4-0.106 0.438-0.338 1.381-0.387 1.575-0.063 0.256-0.2 0.306-0.463 0.188-1.731-0.806-2.813-3.337-2.813-5.369 0-4.375 3.175-8.387 9.156-8.387 4.806 0 8.544 3.425 8.544 8.006 0 4.775-3.012 8.625-7.194 8.625-1.406 0-2.725-0.731-3.175-1.594 0 0-0.694 2.644-0.863 3.294-0.313 1.206-1.156 2.712-1.725 3.631 1.3 0.4 2.675 0.619 4.106 0.619 7.656 0 13.863-6.206 13.863-13.863 0-7.662-6.206-13.869-13.863-13.869z"></path>
</symbol>
<symbol id="icon-calendar" viewBox="0 0 34 32">
<path d="M6.588 12.549c0-0.693 0.562-1.255 1.255-1.255h0.179c0.693 0 1.255 0.562 1.255 1.255s-0.562 1.255-1.255 1.255h-0.179c-0.693 0-1.255-0.562-1.255-1.255zM6.588 17.569c0-0.693 0.562-1.255 1.255-1.255h0.179c0.693 0 1.255 0.562 1.255 1.255s-0.562 1.255-1.255 1.255h-0.179c-0.693 0-1.255-0.562-1.255-1.255zM22.723 17.569c0-0.693 0.562-1.255 1.255-1.255h0.179c0.693 0 1.255 0.562 1.255 1.255s-0.562 1.255-1.255 1.255h-0.179c-0.693 0-1.255-0.562-1.255-1.255zM22.723 12.549c0-0.693 0.562-1.255 1.255-1.255h0.179c0.693 0 1.255 0.562 1.255 1.255s-0.562 1.255-1.255 1.255h-0.179c-0.693 0-1.255-0.562-1.255-1.255zM11.966 12.549c0-0.693 0.562-1.255 1.255-1.255h0.179c0.693 0 1.255 0.562 1.255 1.255s-0.562 1.255-1.255 1.255h-0.179c-0.693 0-1.255-0.562-1.255-1.255zM17.345 12.549c0-0.693 0.562-1.255 1.255-1.255h0.179c0.693 0 1.255 0.562 1.255 1.255s-0.562 1.255-1.255 1.255h-0.179c-0.693 0-1.255-0.562-1.255-1.255zM17.345 17.569c0-0.693 0.562-1.255 1.255-1.255h0.179c0.693 0 1.255 0.562 1.255 1.255s-0.562 1.255-1.255 1.255h-0.179c-0.693 0-1.255-0.562-1.255-1.255zM11.966 17.569c0-0.693 0.562-1.255 1.255-1.255h0.179c0.693 0 1.255 0.562 1.255 1.255s-0.562 1.255-1.255 1.255h-0.179c-0.693 0-1.255-0.562-1.255-1.255z"></path>
<path d="M6.588 21.961c0-0.693 0.562-1.255 1.255-1.255h0.179c0.693 0 1.255 0.562 1.255 1.255s-0.562 1.255-1.255 1.255h-0.179c-0.693 0-1.255-0.562-1.255-1.255zM11.966 21.961c0-0.693 0.562-1.255 1.255-1.255h0.179c0.693 0 1.255 0.562 1.255 1.255s-0.562 1.255-1.255 1.255h-0.179c-0.693 0-1.255-0.562-1.255-1.255zM17.345 21.961c0-0.693 0.562-1.255 1.255-1.255h0.179c0.693 0 1.255 0.562 1.255 1.255s-0.562 1.255-1.255 1.255h-0.179c-0.693 0-1.255-0.562-1.255-1.255z"></path>
<path d="M29.593 25.307h-5.020v-5.020h1.673v3.346h3.346v1.673z"></path>
<path d="M25.412 18.614c3.179 0 5.856 2.677 5.856 5.856s-2.677 5.856-5.856 5.856c-3.179 0-5.856-2.677-5.856-5.856s2.677-5.856 5.856-5.856zM25.412 16.941c-4.183 0-7.529 3.346-7.529 7.529s3.346 7.529 7.529 7.529c4.183 0 7.529-3.346 7.529-7.529s-3.346-7.529-7.529-7.529z"></path>
<path d="M2.237 4.791c0.227-0.227 0.535-0.354 0.856-0.354h25.815c0.321 0 0.629 0.128 0.856 0.354s0.354 0.535 0.354 0.856v10.656c0.688 0.395 1.32 0.873 1.882 1.423v-12.079c0-0.82-0.326-1.607-0.906-2.187s-1.366-0.906-2.187-0.906h-25.815c-0.82 0-1.607 0.326-2.187 0.906s-0.906 1.367-0.906 2.187v21.513c0 0.82 0.326 1.607 0.906 2.187s1.366 0.906 2.187 0.906h14.873c-0.447-0.577-0.828-1.208-1.133-1.882h-13.74c-0.321 0-0.629-0.128-0.856-0.354s-0.354-0.535-0.354-0.856v-21.513c0-0.321 0.127-0.629 0.354-0.856z"></path>
<path d="M7.529 0c0.52 0 0.941 0.421 0.941 0.941v5.647c0 0.52-0.421 0.941-0.941 0.941s-0.941-0.421-0.941-0.941v-5.647c0-0.52 0.421-0.941 0.941-0.941z"></path>
<path d="M16 0c0.52 0 0.941 0.421 0.941 0.941v5.647c0 0.52-0.421 0.941-0.941 0.941s-0.941-0.421-0.941-0.941v-5.647c0-0.52 0.421-0.941 0.941-0.941z"></path>
<path d="M24.471 0c0.52 0 0.941 0.421 0.941 0.941v5.647c0 0.52-0.421 0.941-0.941 0.941s-0.941-0.421-0.941-0.941v-5.647c0-0.52 0.421-0.941 0.941-0.941z"></path>
</symbol>
</defs>
</svg>
