<svg aria-hidden="true" style="position: absolute; width: 0; height: 0; overflow: hidden;" version="1.1" xmlns="http://www.w3.org/2000/svg" xmlns:xlink="http://www.w3.org/1999/xlink">
<defs>
<symbol id="icon-arrow-left" viewBox="0 0 17 32">
<path d="M16.711 31.127c-0.113 0.112-0.246 0.201-0.394 0.262s-0.305 0.092-0.465 0.092-0.317-0.031-0.465-0.092c-0.147-0.061-0.281-0.15-0.394-0.262l-14.545-14.462c-0.113-0.112-0.202-0.245-0.264-0.391s-0.093-0.303-0.093-0.462c0-0.159 0.031-0.316 0.093-0.462s0.151-0.279 0.264-0.391l14.545-14.462c0.228-0.226 0.536-0.353 0.858-0.353s0.631 0.127 0.858 0.353c0.228 0.226 0.355 0.533 0.355 0.853s-0.128 0.627-0.355 0.853l-13.69 13.609 13.69 13.609c0.113 0.112 0.202 0.245 0.264 0.391s0.093 0.303 0.093 0.462c0 0.159-0.031 0.315-0.093 0.462s-0.151 0.279-0.264 0.391z"></path>
</symbol>
<symbol id="icon-arrow-right" viewBox="0 0 17 32">
<path d="M0.402 0.497c0.113-0.112 0.246-0.201 0.394-0.262s0.305-0.092 0.465-0.092c0.159 0 0.317 0.031 0.465 0.092s0.281 0.15 0.394 0.262l14.545 14.462c0.113 0.112 0.202 0.245 0.264 0.391s0.093 0.303 0.093 0.462-0.031 0.315-0.093 0.462c-0.061 0.146-0.151 0.279-0.264 0.391l-14.545 14.462c-0.228 0.226-0.536 0.353-0.858 0.353s-0.631-0.127-0.858-0.353c-0.228-0.226-0.355-0.533-0.355-0.853s0.128-0.627 0.355-0.853l13.69-13.609-13.69-13.609c-0.113-0.112-0.202-0.245-0.264-0.391s-0.093-0.303-0.093-0.462c0-0.159 0.031-0.315 0.093-0.462s0.151-0.279 0.264-0.391z"></path>
</symbol>
</defs>
</svg>
