<svg width="108" height="38" viewBox="0 0 108 38" fill="none" xmlns="http://www.w3.org/2000/svg">
<path d="M94.1327 10.0975C96.5913 9.80211 99.239 9.97142 101.417 11.2557C102.845 12.0878 103.888 13.4423 104.639 14.8922C105.307 16.18 105.622 17.6048 106.082 18.9737C106.793 21.1837 107.389 23.509 107.117 25.8487C106.905 27.7543 105.975 29.633 104.387 30.7533C102.912 31.8106 101.02 32.1042 99.2462 31.9277C96.6705 31.6989 94.2966 30.6074 91.8938 29.7428C90.5502 29.2439 89.3542 28.3595 88.4968 27.214C85.3376 23.1055 85.5159 16.8321 88.803 12.8497C90.1161 11.2557 92.1118 10.3569 94.1327 10.0975ZM94.655 14.604C92.8232 15.0777 91.9515 17.059 91.8758 18.8007C91.7623 21.3782 92.182 24.1502 93.8085 26.2342C95.2278 28.0533 97.3117 29.3826 99.5956 29.7717C100.909 30.0094 102.427 29.7032 103.293 28.6189C104.226 27.4824 104.241 25.8955 103.969 24.5213C103.466 22.1563 102.263 20.0147 100.948 18.0136C100.237 16.9563 99.4786 15.8757 98.3961 15.1678C97.3009 14.4725 95.905 14.278 94.655 14.604Z" fill="black"/>
<path d="M1.84091 13.4274C3.79338 10.6554 7.07511 8.86681 10.4685 8.75874C13.0514 8.66328 15.7531 9.44499 17.6516 11.257C19.1465 12.7339 19.7679 14.8557 19.9535 16.9C17.9325 16.2678 15.8954 15.6464 13.7899 15.3744C13.6494 14.1893 12.9811 12.9681 11.7726 12.6096C9.26353 11.8225 6.17452 12.5412 4.57509 14.717C3.53041 16.0841 3.22421 17.9177 3.60246 19.5784C4.41838 23.2725 8.31431 25.9869 12.0643 25.4556C12.6839 25.3637 13.3252 25.0953 13.6728 24.546C14.2744 23.6202 14.3698 22.4764 14.3302 21.4011C16.1926 21.7037 18.01 22.2171 19.8364 22.6782C19.5698 25.1764 18.4008 27.7016 16.2376 29.0957C13.8007 30.6591 10.6612 30.7114 7.93427 29.9873C5.9854 29.4848 4.5913 27.9592 3.24943 26.5597C1.73465 24.9476 0.517055 22.9736 0.151418 20.7635C-0.32229 18.2185 0.336939 15.5221 1.84091 13.4274Z" fill="black"/>
<path d="M73.117 8.82525C74.9866 8.16062 77.0724 7.6617 79.0266 8.26329C80.255 8.62713 81.2565 9.52591 81.8977 10.6192C81.6726 9.85552 81.3628 9.12245 80.9683 8.4326C82.0346 8.71178 83.054 9.13685 84.0645 9.57634C84.4644 11.3559 84.5022 13.2111 84.1906 15.0069C83.9132 16.727 83.3422 18.3768 82.8811 20.0519C82.6776 20.7598 82.7659 21.5019 82.7533 22.2277C82.7443 24.6845 82.7677 27.1413 82.7407 29.5963C82.6596 31.6046 82.2796 33.793 80.7936 35.2664C79.1239 36.9397 76.6779 37.4656 74.3976 37.5917C71.8112 37.725 69.0248 37.453 66.858 35.904C65.5413 34.9836 64.8064 33.4238 64.6839 31.8478C66.5013 31.8478 68.3205 31.846 70.1397 31.8478C70.3252 32.7033 70.9502 33.4328 71.831 33.6075C73.2863 33.9227 74.974 33.9605 76.2564 33.0906C77.2003 32.435 77.5497 31.2588 77.6686 30.1709C77.8054 29.0884 77.7802 27.9969 77.7874 26.909C77.076 28.1464 75.9665 29.1911 74.5651 29.5675C72.3371 30.1655 69.8011 29.8971 67.8756 28.5733C65.9105 27.2206 64.7632 24.9385 64.412 22.6186C64.0788 20.3293 64.1778 17.9211 65.0676 15.7615C65.8691 13.8019 67.238 12.0656 69.0086 10.8948C70.2874 10.0428 71.6797 9.36921 73.117 8.82525ZM78.2575 11.156C76.9103 11.4478 75.8512 12.4186 74.9596 13.4164C73.7816 14.7835 72.7243 16.2497 71.7229 17.7482C70.9052 19.1099 70.1271 20.6031 70.1109 22.2295C70.0856 23.3769 70.6008 24.5999 71.6455 25.1636C72.9855 25.8859 74.7669 25.8157 75.9917 24.8809C77.121 24.0487 77.7208 22.7429 78.4178 21.5685C79.6408 19.5656 80.9377 17.5213 81.415 15.1906C81.6401 14.0288 81.5843 12.6599 80.7269 11.7558C80.1037 11.0893 79.1095 10.9722 78.2575 11.156Z" fill="black"/>
<path d="M45.7067 8.29099C47.1117 7.48226 48.8138 7.50027 50.3664 7.77585C52.5242 8.18652 54.5559 9.07089 56.5065 10.0579C58.821 11.1963 60.9915 12.9056 62.0343 15.3299C62.9331 17.2986 62.9133 19.5105 62.7872 21.625C59.9972 21.6881 57.2072 21.8394 54.4154 21.7673C52.2018 21.7169 49.9845 21.7205 47.7709 21.8087C47.7583 23.0732 47.996 24.4439 48.9182 25.3805C50.1863 26.6575 52.2 26.8628 53.8714 26.4089C54.9593 26.1189 55.8275 25.321 56.4021 24.3754C58.4176 24.325 60.4313 24.2547 62.4468 24.2007C62.2144 25.4705 61.467 26.571 60.5754 27.4752C58.7346 29.4871 56.0094 30.4922 53.3239 30.5984C50.8383 30.7714 48.2536 30.1229 46.3011 28.5361C45.1124 27.6337 44.2766 26.3207 43.8624 24.8941C43.322 23.0948 43.3598 21.1801 43.5814 19.3321C43.7813 16.9438 42.8267 14.6023 43.2049 12.2157C43.4301 10.6379 44.282 9.0817 45.7067 8.29099ZM46.9117 11.4773C46.2039 11.8267 45.9031 12.6534 45.8995 13.3991C45.8977 14.6545 46.1444 15.8973 46.4903 17.0987C48.0627 16.5223 49.7702 16.6988 51.3786 17.014C53.0789 17.3563 54.7792 17.7129 56.4993 17.9452C56.1859 16.697 55.4547 15.6037 54.5595 14.6959C53.1492 13.2748 51.4831 12.032 49.5486 11.4394C48.6985 11.1945 47.7331 11.0756 46.9117 11.4773Z" fill="black"/>
<path d="M23.4626 1.98669C25.0783 1.12213 26.7696 0.363836 28.5761 0C28.7598 2.44779 28.8139 4.90097 28.8049 7.35416C29.3776 6.1708 30.1774 4.92799 31.494 4.49931C32.9476 3.98598 34.5236 4.56235 35.7033 5.44493C37.5297 6.81561 38.7707 8.82572 39.5957 10.9277C41.0906 14.4922 40.8133 18.4782 40.3305 22.2264C39.9739 24.8183 39.9649 27.4444 40.1847 30.0489C38.0593 30.2794 35.9339 30.519 33.7995 30.6559C33.5185 28.9358 33.4717 27.1814 33.5996 25.4451C33.8373 22.9973 34.5398 20.6288 35.1792 18.2638C35.5124 17.0372 35.8366 15.7746 35.7015 14.4922C35.5665 13.0675 35.3431 11.5887 34.5938 10.3423C34.0463 9.4201 32.9962 8.68883 31.8867 8.85274C31.0635 8.96621 30.4511 9.62724 30.0693 10.3225C29.23 11.8445 29.0678 13.6024 28.7544 15.2793C27.9259 18.4025 26.9479 21.5059 26.5678 24.7264C26.3265 26.6951 26.3949 28.6926 26.6525 30.6577C25.2782 30.5514 23.9129 30.3731 22.5512 30.1732C22.2973 27.5885 22.3837 24.9804 22.7223 22.4083C22.9349 20.6666 23.3365 18.9519 23.504 17.2048C23.6499 12.1327 23.6283 7.05697 23.4626 1.98669Z" fill="black"/>
</svg>
