<svg width="17" height="16" viewBox="0 0 17 16" fill="none" xmlns="http://www.w3.org/2000/svg">
<path d="M6.86262 13.684C8.38075 13.6837 9.85513 13.1755 11.051 12.2403L14.8109 16L16.0203 14.7907L12.2604 11.031C13.1961 9.83508 13.7047 8.36043 13.705 6.84199C13.705 3.06949 10.6354 0 6.86262 0C3.08991 0 0.0202637 3.06949 0.0202637 6.84199C0.0202637 10.6145 3.08991 13.684 6.86262 13.684ZM6.86262 1.7105C9.69279 1.7105 11.9944 4.01197 11.9944 6.84199C11.9944 9.67201 9.69279 11.9735 6.86262 11.9735C4.03245 11.9735 1.73085 9.67201 1.73085 6.84199C1.73085 4.01197 4.03245 1.7105 6.86262 1.7105Z" fill="#050505"/>
</svg>
