<svg width="140" height="51" viewBox="0 0 140 51" fill="none" xmlns="http://www.w3.org/2000/svg">
<g clip-path="url(#clip0_33_132)">
<path d="M135.032 21.0637C135.019 21.3839 135.074 21.7032 135.194 22.0006C135.313 22.298 135.494 22.5668 135.725 22.7894C136.223 23.2165 136.857 23.4513 137.513 23.4513C138.169 23.4513 138.804 23.2165 139.302 22.7894C139.748 22.3267 139.996 21.7095 139.996 21.0673C139.996 20.4251 139.748 19.8078 139.302 19.3452C138.805 18.917 138.17 18.6815 137.513 18.6815C136.857 18.6815 136.222 18.917 135.725 19.3452C135.494 19.567 135.312 19.8351 135.192 20.1318C135.073 20.4286 135.017 20.7474 135.028 21.0673L135.032 21.0637ZM121.84 29.8076H125.516L133.961 7.48525H130.38C129.739 9.29571 129.132 10.9739 128.558 12.5199L127.837 14.5035C127.597 15.1671 127.376 15.7856 127.174 16.359C126.972 16.9324 126.792 17.453 126.636 17.9206C126.483 18.384 126.371 18.7267 126.306 18.9467H126.239C126.151 18.7267 126.03 18.3846 125.879 17.9206C125.727 17.4566 125.547 16.9378 125.338 16.3644C125.129 15.791 124.903 15.1725 124.66 14.5089L123.93 12.5253C123.356 10.9781 122.749 9.29992 122.108 7.49066H118.267L124.427 23.2203L121.84 29.8076ZM107.861 23.581C109.318 23.6459 110.361 23.789 110.991 24.0101C111.276 24.0897 111.526 24.2647 111.697 24.5059C111.869 24.7472 111.953 25.04 111.934 25.3355C111.946 25.7255 111.823 26.1076 111.586 26.4175C111.328 26.7363 111 26.9912 110.627 27.1622C110.165 27.3776 109.674 27.5228 109.17 27.5932C108.573 27.6843 107.97 27.729 107.367 27.7266C106.085 27.7266 105.059 27.5553 104.287 27.2127C103.515 26.8701 103.126 26.2973 103.12 25.4942C103.12 25.0307 103.222 24.5727 103.418 24.1526C103.61 23.7294 103.952 23.3927 104.379 23.2077C104.854 23.3123 105.336 23.3846 105.821 23.4241C106.406 23.4794 107.084 23.5293 107.857 23.5738L107.861 23.581ZM104.381 12.7778C104.381 11.7175 104.673 10.9168 105.259 10.3758C105.847 9.83342 106.623 9.54222 107.423 9.56439C108.235 9.53794 109.025 9.82902 109.626 10.3758C110.21 10.9168 110.503 11.7175 110.504 12.7778C110.506 13.8381 110.213 14.6195 109.626 15.122C109.012 15.6404 108.226 15.9122 107.423 15.8848C106.632 15.9082 105.86 15.6363 105.259 15.122C104.673 14.6147 104.381 13.8333 104.381 12.7778ZM115.409 9.53193L116.103 7.08133C115.828 6.96062 115.539 6.87169 115.243 6.81625C114.883 6.74809 114.517 6.71488 114.151 6.71707C113.517 6.7008 112.887 6.80798 112.295 7.03264C111.791 7.24104 111.322 7.52567 110.905 7.87656C110.382 7.63532 109.839 7.44159 109.282 7.29772C108.634 7.12827 107.967 7.04461 107.298 7.04887C106.472 7.04757 105.65 7.17596 104.864 7.42935C104.101 7.67264 103.387 8.05 102.756 8.54376C102.133 9.03624 101.625 9.65832 101.266 10.3668C100.88 11.1366 100.686 11.9887 100.702 12.8499C100.684 13.6611 100.86 14.4649 101.216 15.1941C101.542 15.8477 102.012 16.4192 102.59 16.8657C101.947 17.1267 101.383 17.549 100.951 18.0919C100.573 18.5738 100.369 19.1692 100.372 19.7816C100.379 20.293 100.515 20.7943 100.769 21.2386C101.064 21.7529 101.517 22.1592 102.06 22.3981C101.404 22.6764 100.846 23.1426 100.455 23.7379C100.024 24.3663 99.7978 25.1127 99.8076 25.8747C99.7899 26.573 99.9903 27.2594 100.381 27.8384C100.786 28.4066 101.319 28.8717 101.937 29.1963C102.671 29.5852 103.462 29.8537 104.281 29.9915C106.312 30.3399 108.388 30.3229 110.412 29.941C111.32 29.7705 112.194 29.457 113.004 29.0123C113.712 28.6214 114.314 28.0645 114.76 27.3894C115.204 26.6751 115.428 25.8462 115.406 25.0055C115.406 24.164 115.234 23.4794 114.892 22.9516C114.539 22.4108 114.048 21.9747 113.469 21.6894C112.798 21.3597 112.084 21.1254 111.348 20.9933C110.489 20.8315 109.621 20.7213 108.748 20.6633C107.932 20.596 107.21 20.5407 106.584 20.4974C106.057 20.4648 105.532 20.4046 105.012 20.3171C104.675 20.2709 104.353 20.1522 104.067 19.9691C103.964 19.8929 103.881 19.7924 103.827 19.6767C103.772 19.5609 103.747 19.4334 103.753 19.3055C103.753 18.8655 103.914 18.5553 104.233 18.3786C104.488 18.2219 104.779 18.1314 105.078 18.1154C105.375 18.1259 105.669 18.1701 105.955 18.247C106.451 18.3475 106.956 18.3917 107.462 18.3786C108.317 18.3829 109.168 18.2614 109.987 18.018C110.761 17.7919 111.486 17.4211 112.122 16.9252C112.733 16.4481 113.241 15.8511 113.613 15.1707C114 14.4367 114.194 13.6163 114.176 12.7868C114.177 12.1775 114.077 11.5722 113.878 10.9962C113.697 10.4554 113.404 9.95888 113.018 9.53915C113.156 9.41165 113.319 9.31566 113.498 9.25784C113.737 9.17664 113.989 9.1376 114.243 9.14243C114.45 9.14333 114.656 9.17122 114.856 9.22538C115.06 9.28068 115.247 9.38889 115.397 9.53915L115.409 9.53193ZM89.3488 20.7319C88.7309 20.7483 88.1198 20.6002 87.578 20.3027C87.0813 20.0153 86.6565 19.6188 86.3355 19.1432C85.9886 18.623 85.7365 18.0454 85.5908 17.4373C85.2602 16.055 85.2614 14.614 85.5944 13.2322C85.7397 12.6234 85.9919 12.0452 86.3392 11.5245C86.6599 11.0492 87.0848 10.6532 87.5816 10.3668C88.1232 10.0687 88.7343 9.91994 89.3524 9.93586C89.976 9.92094 90.5928 10.0695 91.1412 10.3668C91.6463 10.6493 92.0785 11.0457 92.4035 11.5245C92.7507 12.0452 93.0029 12.6234 93.1482 13.2322C93.48 14.6143 93.48 16.0553 93.1482 17.4373C93.0025 18.0454 92.7504 18.623 92.4035 19.1432C92.078 19.6221 91.646 20.019 91.1412 20.3027C90.5926 20.5994 89.9759 20.7473 89.3524 20.7319H89.3488ZM89.3524 7.05428C88.2311 7.03685 87.1173 7.23964 86.0741 7.65115C85.1382 8.02447 84.2969 8.60096 83.6109 9.33899C82.9199 10.0965 82.3904 10.9867 82.0547 11.9555C81.3262 14.1488 81.3262 16.5189 82.0547 18.7122C82.3904 19.681 82.9199 20.5712 83.6109 21.3287C84.2983 22.0672 85.1407 22.6442 86.0777 23.0184C88.1918 23.8117 90.5219 23.8117 92.6361 23.0184C93.5761 22.6412 94.4233 22.0648 95.1191 21.3287C95.8189 20.5749 96.3543 19.6839 96.6916 18.7122C97.4225 16.5193 97.4225 14.1484 96.6916 11.9555C96.3543 10.9838 95.8189 10.0928 95.1191 9.33899C94.4211 8.6018 93.5706 8.02579 92.6271 7.65115C91.5833 7.2395 90.4688 7.03671 89.347 7.05428H89.3524ZM73.7291 23.1825H77.5033V0H73.7309L73.7291 23.1825ZM61.8169 20.7319C61.1984 20.7486 60.5866 20.6004 60.0443 20.3027C59.5482 20.0146 59.1235 19.6182 58.8019 19.1432C58.4563 18.6225 58.2048 18.0451 58.0589 17.4373C57.7271 16.0553 57.7271 14.6143 58.0589 13.2322C58.2045 12.6238 58.4559 12.0457 58.8019 11.5245C59.123 11.0495 59.5479 10.6537 60.0443 10.3668C60.5865 10.0685 61.1983 9.91979 61.8169 9.93586C62.4405 9.92135 63.0571 10.0699 63.6057 10.3668C64.1104 10.6498 64.5425 11.0461 64.868 11.5245C65.2138 12.046 65.4658 12.6239 65.6127 13.2322C65.9421 14.6145 65.9421 16.055 65.6127 17.4373C65.4655 18.0449 65.2135 18.6222 64.868 19.1432C64.5421 19.6217 64.1101 20.0185 63.6057 20.3027C63.0569 20.599 62.4404 20.7469 61.8169 20.7319ZM61.8169 7.05428C60.698 7.03808 59.5868 7.24084 58.5458 7.65115C57.6091 8.02491 56.7667 8.6013 56.079 9.33899C55.3885 10.0968 54.8591 10.987 54.5228 11.9555C53.7943 14.1488 53.7943 16.5189 54.5228 18.7122C54.8591 19.6807 55.3885 20.5709 56.079 21.3287C56.7671 22.0664 57.6093 22.6433 58.5458 23.0184C60.66 23.8117 62.99 23.8117 65.1042 23.0184C66.0448 22.6413 66.8926 22.0649 67.5891 21.3287C68.2882 20.5745 68.8236 19.6836 69.1615 18.7122C69.8899 16.5189 69.8899 14.1488 69.1615 11.9555C68.8236 10.9841 68.2882 10.0933 67.5891 9.33899C66.893 8.60284 66.0451 8.02692 65.1042 7.65115C64.061 7.23964 62.9472 7.03685 61.8259 7.05428H61.8169ZM38.8057 16.0957V14.572C38.7855 13.856 38.9208 13.1442 39.2025 12.4856C39.4359 11.9543 39.7738 11.4754 40.196 11.0773C40.5821 10.7209 41.0393 10.4505 41.5376 10.2839C42.0018 10.1232 42.4891 10.0392 42.9802 10.035C43.5625 10.0264 44.1377 10.1634 44.6536 10.4336C45.1553 10.7037 45.5908 11.0818 45.9285 11.5407C46.2988 12.051 46.5737 12.6241 46.74 13.2322C47.1151 14.6143 47.1151 16.0714 46.74 17.4536C46.5715 18.0547 46.2966 18.6209 45.9285 19.1252C45.5919 19.586 45.1563 19.9656 44.6536 20.236C44.1376 20.5055 43.5624 20.6418 42.9802 20.6327C42.4892 20.6283 42.0021 20.5449 41.5376 20.3856C41.0389 20.2191 40.5815 19.948 40.196 19.5904C39.7742 19.192 39.4363 18.7131 39.2025 18.1821C38.9208 17.5235 38.7855 16.8117 38.8057 16.0957ZM43.7719 23.6134C44.7413 23.6232 45.7015 23.4259 46.5885 23.0346C47.4443 22.6501 48.2065 22.0848 48.8227 21.3774C49.4792 20.6124 49.9852 19.7301 50.314 18.7771C51.0426 16.5388 51.0426 14.1271 50.314 11.8888C49.9848 10.9365 49.4788 10.055 48.8227 9.2903C48.2064 8.58537 47.444 8.02298 46.5885 7.64214C45.7019 7.24946 44.7415 7.05146 43.7719 7.06149C42.5132 7.06149 41.4589 7.32657 40.609 7.85672C39.8107 8.33451 39.1449 9.00468 38.6723 9.80602V7.48525H35.0658V29.8076H38.8418V21.2296C39.3385 21.8977 39.9631 22.4604 40.6793 22.8849C41.4643 23.3718 42.4964 23.6122 43.7755 23.6062L43.7719 23.6134ZM19.8176 29.8076H23.4944L31.939 7.48525H28.3632C27.7224 9.29571 27.1153 10.9739 26.5419 12.5199L25.8206 14.5035C25.5802 15.1671 25.359 15.7856 25.157 16.359C24.955 16.9324 24.7759 17.453 24.6196 17.9206C24.4658 18.3846 24.3558 18.7267 24.2896 18.9467H24.2229C24.134 18.7267 24.0138 18.3846 23.8623 17.9206C23.7072 17.4572 23.5269 16.9378 23.3213 16.3644C23.1157 15.791 22.8849 15.1725 22.6415 14.5089L21.9202 12.5253C21.3323 10.9745 20.7198 9.29451 20.0827 7.48525H16.2418L22.4017 23.2149L19.8176 29.8076ZM0 0V3.21338H6.79281V23.1825H10.7022V3.21338H17.4914V0H0Z" fill="black"/>
<path d="M91.0816 42.9481C91.0735 42.7459 91.112 42.5446 91.1943 42.3598C91.2765 42.175 91.4002 42.0116 91.5559 41.8824C91.872 41.6155 92.3559 41.482 93.0075 41.482C93.6693 41.482 94.176 41.6389 94.5312 41.9545C94.8992 42.2959 95.1311 42.759 95.184 43.2582L96.9458 42.8579C96.8785 42.4485 96.7307 42.0565 96.511 41.7045C96.2912 41.3526 96.0038 41.0477 95.6655 40.8076C94.9778 40.3183 94.1063 40.0743 93.0508 40.0755C92.5383 40.0701 92.0277 40.1374 91.5342 40.2757C91.1041 40.3946 90.6998 40.5928 90.3423 40.8599C90.0118 41.1098 89.7449 41.4342 89.5633 41.8066C89.3755 42.21 89.2823 42.651 89.291 43.0959C89.28 43.5175 89.3683 43.9357 89.5489 44.3167C89.7217 44.6572 89.9733 44.9515 90.2828 45.1751C90.6321 45.424 91.0194 45.6146 91.4296 45.7395C91.9205 45.8909 92.4228 46.0018 92.9317 46.0713C93.312 46.1264 93.688 46.2077 94.057 46.3147C94.3199 46.3899 94.5699 46.5048 94.7981 46.6555C94.9721 46.7733 95.1125 46.9342 95.2056 47.1226C95.3408 47.4434 95.3683 47.7993 95.2841 48.1371C95.1999 48.4749 95.0085 48.7763 94.7386 48.9961C94.3437 49.2774 93.8171 49.4181 93.1553 49.4181C92.8026 49.4273 92.4512 49.3716 92.1185 49.254C91.8514 49.1581 91.6061 49.0097 91.3972 48.8176C91.2082 48.6388 91.0595 48.4218 90.9608 48.1811C90.8625 47.9424 90.8016 47.69 90.7805 47.4327L89.0476 47.6996C89.0666 48.1196 89.1728 48.5311 89.3595 48.9078C89.5527 49.2932 89.8278 49.6317 90.1656 49.8996C90.5472 50.1967 90.9781 50.4244 91.4387 50.5722C91.9917 50.7483 92.5696 50.8336 93.1499 50.8246C93.7037 50.8312 94.2552 50.7533 94.7855 50.5938C95.2392 50.4593 95.6637 50.2409 96.0369 49.95C96.3781 49.6797 96.6536 49.3358 96.843 48.9438C97.0383 48.5373 97.137 48.0911 97.1315 47.6401C97.1423 47.2216 97.0642 46.8055 96.9025 46.4193C96.7477 46.0764 96.5112 45.7768 96.2136 45.5465C95.8701 45.284 95.4848 45.081 95.074 44.9461C94.563 44.7734 94.0381 44.6449 93.5052 44.562C93.1226 44.5058 92.7438 44.4263 92.3709 44.3239C92.1059 44.2545 91.8521 44.1476 91.6172 44.0066C91.4417 43.9017 91.2983 43.7508 91.2024 43.5702C91.1124 43.3755 91.0692 43.1624 91.0762 42.9481H91.0816ZM81.8436 50.6317H83.5892V40.2684H81.8436V50.6317ZM74.4143 43.2726C74.4269 43.5047 74.3891 43.7367 74.3035 43.9527C74.2179 44.1688 74.0865 44.3637 73.9184 44.5241C73.5866 44.8252 73.0564 44.9749 72.3243 44.9749H70.5031V41.7038H72.2071C72.9284 41.7038 73.4694 41.8246 73.8499 42.0645C74.2303 42.3043 74.4143 42.7082 74.4143 43.2708V43.2726ZM76.1905 43.2276C76.2088 42.7305 76.0963 42.2374 75.8641 41.7976C75.6574 41.4303 75.3655 41.1179 75.013 40.887C74.6512 40.655 74.2495 40.4923 73.8282 40.4073C73.388 40.3124 72.9388 40.2653 72.4884 40.2666H68.7665V50.6317H70.4976V46.3832H72.2017L74.5946 50.6317H76.5944L74.0013 46.1741C74.626 46.0017 75.1806 45.6371 75.5864 45.1318C75.9969 44.5847 76.2065 43.9129 76.1797 43.2294L76.1905 43.2276ZM58.9912 42.3097H59.0218C59.0525 42.4107 59.0958 42.5459 59.1553 42.7173C59.2148 42.8886 59.2815 43.0887 59.3554 43.3105L59.5916 44.021C59.6764 44.2734 59.763 44.5223 59.8513 44.7693C60.0485 45.35 60.2655 45.9763 60.5023 46.6483H57.5468C57.774 45.9775 57.9862 45.3512 58.1833 44.7693C58.2717 44.5223 58.3636 44.2734 58.443 44.021L58.6792 43.3105C58.7531 43.0887 58.8181 42.8904 58.8722 42.7173C58.9263 42.5441 58.9677 42.4107 58.9966 42.3097H58.9912ZM63.7211 50.6317L59.9739 40.2684H58.1977L54.438 50.6317H56.1547L57.0725 48.035H60.9819L61.8998 50.6407L63.7211 50.6317ZM49.1473 43.4367C49.1473 44.0787 48.9573 44.5445 48.5775 44.8343C48.1976 45.124 47.6223 45.27 46.8518 45.2724H45.1062V41.7038H46.8518C47.6332 41.7038 48.2108 41.8301 48.5847 42.0825C48.9585 42.335 49.1461 42.7864 49.1473 43.4367ZM45.1062 46.6934H47.1186C47.6383 46.6987 48.1563 46.6338 48.6586 46.5004C49.094 46.3859 49.5018 46.1847 49.8578 45.909C50.1958 45.6381 50.4647 45.2908 50.6422 44.8956C50.8401 44.4352 50.9367 43.9377 50.9253 43.4367C50.9377 42.9424 50.8462 42.4509 50.6566 41.9942C50.4897 41.6037 50.2259 41.2624 49.8902 41.0024C49.5298 40.7348 49.1188 40.5434 48.682 40.4398C48.171 40.315 47.6465 40.2545 47.1204 40.2594H43.3589V50.6317H45.1062V46.6934Z" fill="black"/>
</g>
<defs>
<clipPath id="clip0_33_132">
<rect width="140" height="51" fill="white"/>
</clipPath>
</defs>
</svg>
