<svg aria-hidden="true" style="position: absolute; width: 0; height: 0; overflow: hidden;" version="1.1" xmlns="http://www.w3.org/2000/svg" xmlns:xlink="http://www.w3.org/1999/xlink">
<defs>
<symbol id="icon-like" viewBox="0 0 32 32">
<path stroke-linejoin="round" stroke-linecap="round" stroke-miterlimit="4" stroke-width="2.4" d="M15.992 7.888c-2.399-2.796-6.4-3.548-9.406-0.988s-3.429 6.841-1.069 9.869c1.963 2.518 7.903 7.828 9.849 9.546 0.218 0.192 0.327 0.288 0.454 0.326 0.111 0.033 0.232 0.033 0.343 0 0.127-0.038 0.236-0.134 0.454-0.326 1.947-1.719 7.887-7.029 9.849-9.546 2.361-3.028 1.989-7.336-1.069-9.869s-7.007-1.808-9.406 0.988z"></path>
</symbol>
<symbol id="icon-user" viewBox="0 0 32 32">
<path stroke-linejoin="miter" stroke-linecap="round" stroke-miterlimit="4" stroke-width="2.4" d="M16 18.667c3.682 0 6.667-2.985 6.667-6.667s-2.985-6.667-6.667-6.667c-3.682 0-6.667 2.985-6.667 6.667s2.985 6.667 6.667 6.667zM16 18.667c-5.891 0-10.667 3.582-10.667 8M16 18.667c5.891 0 10.667 3.582 10.667 8"></path>
</symbol>
<symbol id="icon-shopping-cart" viewBox="0 0 32 32">
<path stroke-linejoin="miter" stroke-linecap="round" stroke-miterlimit="4" stroke-width="2.4" d="M4 5.333h0.808c1.361 0 2.503 1.025 2.651 2.377l1.081 9.912c0.148 1.353 1.29 2.377 2.651 2.377h11.536c1.219 0 2.283-0.827 2.584-2.008l1.84-7.215c0.43-1.686-0.844-3.326-2.584-3.326h-15.768M8.833 24.833h1M8.833 25.833h1M23.5 24.833h1M23.5 25.833h1M10.667 25.333c0 0.736-0.597 1.333-1.333 1.333s-1.333-0.597-1.333-1.333c0-0.736 0.597-1.333 1.333-1.333s1.333 0.597 1.333 1.333zM25.333 25.333c0 0.736-0.597 1.333-1.333 1.333s-1.333-0.597-1.333-1.333c0-0.736 0.597-1.333 1.333-1.333s1.333 0.597 1.333 1.333z"></path>
</symbol>
<symbol id="icon-arow-down" viewBox="0 0 32 32">
<path d="M2.991 15.539c0-6.68 5.415-12.096 12.096-12.096s12.096 5.415 12.096 12.096c0 6.68-5.415 12.096-12.096 12.096s-12.096-5.415-12.096-12.096z"></path>
<path d="M10.513 13.257c0.295-0.225 0.717-0.168 0.942 0.127l3.353 4.398c0.083 0.055 0.205 0.055 0.289 0l3.353-4.398c0.225-0.295 0.647-0.352 0.942-0.127s0.352 0.647 0.127 0.942l-3.365 4.413c-0.039 0.051-0.099 0.123-0.181 0.191-0.586 0.486-1.455 0.486-2.041 0-0.082-0.068-0.142-0.139-0.181-0.191l-3.365-4.413c-0.225-0.295-0.168-0.717 0.127-0.942z"></path>
</symbol>
<symbol id="icon-arow-up" viewBox="0 0 32 32">
<path d="M27.182 15.156c0 6.68-5.415 12.096-12.096 12.096s-12.096-5.415-12.096-12.096c0-6.68 5.415-12.096 12.096-12.096s12.096 5.415 12.096 12.096z"></path>
<path d="M19.66 18.647c-0.295 0.225-0.717 0.168-0.942-0.127l-3.353-4.398c-0.083-0.055-0.205-0.055-0.289 0l-3.353 4.398c-0.225 0.295-0.647 0.352-0.942 0.127s-0.352-0.647-0.127-0.942l3.365-4.413c0.039-0.051 0.099-0.123 0.181-0.191 0.586-0.486 1.455-0.486 2.041 0 0.082 0.068 0.142 0.14 0.181 0.191l3.365 4.413c0.225 0.295 0.168 0.717-0.127 0.942z"></path>
</symbol>
<symbol id="icon-left-arow" viewBox="0 0 13 32">
<path d="M0.42 29.162c-0.537-0.504-0.563-1.348-0.058-1.885l10.107-10.754c0.263-0.28 0.263-0.767 0-1.047l-10.107-10.754c-0.504-0.537-0.478-1.38 0.058-1.885s1.38-0.478 1.885 0.058l10.107 10.754c1.228 1.307 1.228 3.393 0 4.7l-10.107 10.754c-0.504 0.537-1.348 0.563-1.885 0.058z"></path>
</symbol>
<symbol id="icon-star" viewBox="0 0 32 32">
<path d="M16 0l3.592 11.056h11.625l-9.404 6.833 3.592 11.056-9.405-6.833-9.405 6.833 3.592-11.056-9.405-6.833h11.625l3.592-11.056z"></path>
</symbol>
<symbol id="icon-message" viewBox="0 0 37 32">
<path d="M12 8.649c-0.663 0-1.2 0.537-1.2 1.2s0.537 1.2 1.2 1.2v-2.4zM24.8 11.049c0.663 0 1.2-0.537 1.2-1.2s-0.537-1.2-1.2-1.2v2.4zM12 15.049c-0.663 0-1.2 0.537-1.2 1.2s0.537 1.2 1.2 1.2v-2.4zM18.4 17.449c0.663 0 1.2-0.537 1.2-1.2s-0.537-1.2-1.2-1.2v2.4zM34.051 22.502v0zM32.653 23.9v0zM32.653 2.198v0zM34.051 3.596v0zM4.147 2.198v0zM2.749 3.596v0zM4.332 29.667v0zM10.672 25.187v0zM2.544 29.813v0zM4.165 29.766v0zM3.083 30.146v0zM4.272 29.708v0zM4.23 29.733v0zM12.429 24.303v0zM11.681 24.541v0zM12 11.049h12.8v-2.4h-12.8v2.4zM12 17.449h6.4v-2.4h-6.4v2.4zM7.52 3.049h21.76v-2.4h-21.76v2.4zM33.2 6.969v12.16h2.4v-12.16h-2.4zM33.2 19.129c0 0.916-0.001 1.531-0.040 2.004-0.037 0.46-0.104 0.679-0.178 0.824l2.138 1.090c0.275-0.54 0.382-1.11 0.432-1.718 0.048-0.594 0.048-1.323 0.048-2.2h-2.4zM29.28 25.449c0.876 0 1.606 0.001 2.2-0.048 0.608-0.050 1.178-0.157 1.718-0.432l-1.090-2.138c-0.145 0.074-0.365 0.141-0.824 0.178-0.473 0.039-1.088 0.040-2.004 0.040v2.4zM32.982 21.957c-0.192 0.376-0.498 0.682-0.874 0.874l1.090 2.138c0.828-0.422 1.501-1.095 1.923-1.923l-2.138-1.090zM29.28 3.049c0.916 0 1.531 0.001 2.004 0.040 0.459 0.038 0.679 0.105 0.824 0.178l1.090-2.138c-0.54-0.275-1.11-0.382-1.718-0.432-0.594-0.049-1.323-0.048-2.2-0.048v2.4zM35.6 6.969c0-0.876 0.001-1.606-0.048-2.199-0.050-0.608-0.157-1.178-0.432-1.718l-2.138 1.090c0.074 0.145 0.141 0.365 0.178 0.824 0.039 0.473 0.040 1.088 0.040 2.004h2.4zM32.108 3.267c0.376 0.192 0.682 0.498 0.874 0.874l2.138-1.090c-0.422-0.828-1.095-1.501-1.923-1.923l-1.090 2.138zM7.52 0.649c-0.876 0-1.606-0.001-2.199 0.048-0.608 0.050-1.178 0.157-1.718 0.432l1.090 2.138c0.145-0.074 0.365-0.141 0.824-0.178 0.473-0.039 1.088-0.040 2.004-0.040v-2.4zM3.6 6.969c0-0.916 0.001-1.531 0.040-2.004 0.038-0.459 0.105-0.679 0.178-0.824l-2.138-1.090c-0.275 0.54-0.382 1.11-0.432 1.718-0.048 0.594-0.048 1.323-0.048 2.199h2.4zM3.602 1.128c-0.828 0.422-1.501 1.095-1.923 1.923l2.138 1.090c0.192-0.376 0.498-0.682 0.874-0.874l-1.090-2.138zM29.28 23.049h-15.654v2.4h15.654v-2.4zM5.024 30.647l6.34-4.48-1.385-1.96-6.34 4.479 1.385 1.96zM1.2 28.578c0 0.32-0.001 0.642 0.023 0.907 0.024 0.263 0.085 0.654 0.338 1.016l1.967-1.376c0.109 0.156 0.097 0.272 0.085 0.14-0.005-0.055-0.009-0.135-0.011-0.255s-0.002-0.258-0.002-0.433h-2.4zM3.629 28.692c-0.139 0.070-0.25 0.125-0.346 0.169s-0.159 0.072-0.202 0.088c-0.101 0.038-0.004-0.018 0.177 0.008l-0.351 2.374c0.418 0.062 0.778-0.046 1.020-0.137 0.241-0.091 0.511-0.225 0.774-0.356l-1.072-2.147zM1.561 30.501c0.315 0.451 0.802 0.752 1.347 0.832l0.351-2.374c0.109 0.016 0.206 0.076 0.269 0.166l-1.967 1.376zM3.6 28.578v-21.609h-2.4v21.609h2.4zM3.639 28.686c-0.008 0.005-0.013 0.009-0.018 0.013s-0.007 0.005-0.009 0.006c-0.002 0.001 0.003-0.002 0.012-0.008l1.294 2.021c0.044-0.028 0.084-0.057 0.105-0.072l-1.385-1.96zM4.701 30.84c0.023-0.012 0.068-0.033 0.113-0.059l-1.169-2.096c0.009-0.005 0.014-0.008 0.012-0.007s-0.004 0.002-0.009 0.005c-0.005 0.003-0.011 0.006-0.020 0.010l1.072 2.147zM3.625 28.697c0.007-0.004 0.014-0.009 0.021-0.013l1.169 2.096c0.035-0.020 0.070-0.041 0.104-0.062l-1.294-2.021zM13.626 23.049c-0.561 0-0.992-0.005-1.417 0.075l0.44 2.359c0.157-0.029 0.329-0.034 0.977-0.034v-2.4zM11.364 26.167c0.529-0.373 0.672-0.469 0.817-0.536l-1.002-2.181c-0.393 0.181-0.743 0.433-1.201 0.757l1.385 1.96zM12.209 23.124c-0.355 0.066-0.701 0.176-1.029 0.327l1.002 2.181c0.149-0.068 0.306-0.118 0.468-0.149l-0.44-2.359z"></path>
</symbol>
<symbol id="icon-arow-right" viewBox="0 0 37 32">
<path stroke-linejoin="miter" stroke-linecap="round" stroke-miterlimit="4" stroke-width="4.1143" d="M2.286 16h29.714M20.571 2.286l12.098 12.098c0.893 0.893 0.893 2.34 0 3.233l-12.098 12.098"></path>
</symbol>
<symbol id="icon-colour-circle" viewBox="0 0 32 32">
<path d="M32 16c0 8.837-7.163 16-16 16s-16-7.163-16-16c0-8.837 7.163-16 16-16s16 7.163 16 16z"></path>
</symbol>
<symbol id="icon-arow-down-f" viewBox="0 0 61 32">
<path stroke-linejoin="miter" stroke-linecap="round" stroke-miterlimit="4" stroke-width="8.3782" d="M5.277 4.528l21.802 21.502c1.609 1.587 4.217 1.587 5.825 0l21.802-21.502"></path>
</symbol>
</defs>
</svg>
