<svg width="16.023193" height="14.833344" viewBox="0 0 16.0232 14.8333" fill="none" xmlns="http://www.w3.org/2000/svg" xmlns:xlink="http://www.w3.org/1999/xlink">
	<desc>
			Created with Pixso.
	</desc>
	<defs/>
	<path id="Icon" d="M0.75 0.75L1.25537 0.75C2.10571 0.75 2.81982 1.39041 2.91211 2.23593L3.58789 8.43076C3.68018 9.27625 4.39429 9.91666 5.24463 9.91666L12.4551 9.91666C13.2168 9.91666 13.8818 9.40009 14.0701 8.66183L15.22 4.15259C15.4888 3.09879 14.6924 2.07407 13.605 2.07407L3.75 2.07407M4.08325 14.0833C3.62305 14.0833 3.25 13.7102 3.25 13.25C3.25 12.7898 3.62305 12.4167 4.08325 12.4167C4.54346 12.4167 4.91675 12.7898 4.91675 13.25C4.91675 13.7102 4.54346 14.0833 4.08325 14.0833ZM3.77051 12.9374L4.39575 12.9374M3.77051 13.5624L4.39575 13.5624M13.25 14.0833C12.7898 14.0833 12.4167 13.7102 12.4167 13.25C12.4167 12.7898 12.7898 12.4167 13.25 12.4167C13.7102 12.4167 14.0833 12.7898 14.0833 13.25C14.0833 13.7102 13.7102 14.0833 13.25 14.0833ZM12.9373 12.9374L13.5623 12.9374M12.9373 13.5624L13.5623 13.5624" stroke="#807D7E" stroke-opacity="1.000000" stroke-width="1.500000"/>
</svg>
