<svg width="91.534668" height="45.000000" viewBox="0 0 91.5347 45" fill="none" xmlns="http://www.w3.org/2000/svg" xmlns:xlink="http://www.w3.org/1999/xlink">
	<desc>
			Created with Pixso.
	</desc>
	<defs/>
	<path id="Euphoria" d="M3.1025 27.6977C3.36863 27.6478 3.66801 27.6145 4.00066 27.6145C4.05056 25.8681 5.04852 22.974 6.11301 19.9802C5.11505 19.8305 4.26679 19.8305 3.75118 20.1798C3.38526 18.7327 4.76576 18.45 6.66188 18.4832C7.64321 15.7056 8.59126 12.9945 8.79086 11.1815C7.21076 11.0817 5.81362 11.248 4.93209 12.246C4.64934 12.5454 3.88424 8.76978 7.34382 8.13774C10.1547 7.62213 16.1425 9.91743 18.022 7.27285C18.3047 6.8903 18.5376 10.3499 16.6581 11.2813C15.4605 11.8634 13.8804 11.7969 12.2338 11.5973C12.0009 13.1941 11.1361 15.8386 10.2379 18.7161C12.2005 18.8491 13.9303 18.8325 14.2962 17.9011C14.8784 21.3773 12.4001 21.2609 9.63912 20.6954C8.87402 23.2568 8.15882 25.8515 7.89269 27.9638C10.3044 28.2466 12.7162 28.3464 13.7806 26.8328C14.0634 26.4502 14.2962 29.9098 12.4168 30.8246C9.12351 32.4546 3.05261 29.1281 0.690775 31.7893C0.408021 32.0887 -0.357079 28.3131 3.1025 27.6977ZM17.1238 17.4686C17.1072 17.4021 20.7996 17.0695 20.7331 19.1984C20.6832 20.5623 17.4897 27.548 18.155 29.7934C19.785 27.7143 24.1261 17.4686 24.1261 17.4686C24.1095 17.4021 27.8019 17.0695 27.7188 19.1984C27.6689 20.5789 24.8746 26.1509 25.1573 29.8932C26.4381 28.546 27.9849 24.8369 28.2676 24.1383C28.3009 24.0718 28.3674 24.0385 28.434 24.0385C28.567 24.0385 28.6502 24.1549 28.6169 24.2714C28.2177 25.5022 26.5545 30.5751 25.6896 31.0907C24.6916 31.7061 21.9805 30.6749 21.731 29.5439C21.2487 27.4482 23.2779 22.4584 23.9598 19.4479C22.6292 22.9241 19.5522 30.7248 18.4877 31.1905C17.5063 31.6064 14.8451 30.7581 14.6289 29.4275C14.2297 27.0158 17.6394 19.398 17.1238 17.4686ZM24.5253 39.2241C23.8434 35.0327 30.197 20.9282 29.5317 17.4354C29.5151 17.3688 33.3572 17.4354 33.1244 19.5477C32.9081 21.5603 30.0473 29.494 28.7001 35.3986C31.1118 26.4502 35.7523 17.9842 36.4675 17.5684C37.1162 17.1859 39.1121 17.7514 39.9271 19.1818C41.0248 21.1112 38.6963 30.4254 34.8375 31.2072C33.9726 31.3901 31.9268 30.1094 31.511 29.5938C30.0806 33.2696 28.75 37.3779 28.1179 41.1701C28.1179 41.1701 28.1179 41.1701 28.1179 41.1701C28.0348 41.5693 24.8081 40.9539 24.5253 39.2241ZM36.8168 18.6163C36.6006 18.5331 34.0392 23.1736 31.694 29.1115C34.771 30.8413 37.5985 18.9323 36.8168 18.6163ZM39.5944 29.2944C38.9125 25.0864 45.3493 10.4996 44.9169 7.38928C44.9002 7.32274 48.4264 7.5057 48.1935 9.61805C47.9606 11.7969 44.5842 20.9781 43.4532 26.9659C45.0666 22.974 47.8775 17.269 49.4908 17.4187C50.4223 17.5019 52.3018 18.3834 52.4681 18.9489C52.9338 20.5124 49.6738 27.6478 49.6073 30.0096C50.9046 28.7622 52.5346 24.8535 52.8174 24.1383C52.8506 24.0718 52.9172 24.0385 52.9837 24.0385C53.1168 24.0385 53.1999 24.1549 53.1666 24.2714C52.7675 25.5022 50.9379 31.1406 50.206 31.2404C48.759 31.44 46.314 30.3922 46.1144 29.0782C45.8649 27.2985 48.7091 21.527 48.9919 18.7327C48.1602 18.5997 43.1538 28.6125 43.1871 31.1905C43.2869 31.6562 39.8938 31.0575 39.5944 29.2944ZM52.6178 29.0616C51.6365 26.2839 53.8652 19.3315 56.3767 17.7181C57.2416 17.1526 59.5868 17.3023 60.3353 17.8013C60.984 18.2171 60.5682 18.6163 60.5682 18.6163C57.857 17.3522 54.6636 29.1281 55.911 30.2757C57.3581 31.6064 60.801 20.712 58.7219 20.2795C58.7219 20.2795 59.6866 18.9157 60.5183 19.0155C63.3957 19.398 61.2168 29.178 57.1917 31.0741C56.094 31.5897 53.4827 31.4899 52.6178 29.0616ZM61.3333 29.4607C60.9008 26.8162 64.1774 19.3648 63.6452 17.4354C63.6286 17.3688 67.5206 17.0695 67.4541 19.1984C67.4042 20.396 65.2918 24.7537 64.9259 28.3297C66.19 24.4044 69.0841 17.2524 70.8804 17.4187C71.8118 17.5019 73.4418 18.267 73.6081 18.8159C73.8243 19.5477 71.5956 23.0406 72.1944 25.2028C67.2378 24.9866 70.4479 19.3814 70.3814 18.7327C69.5498 18.5997 65.0922 28.5127 65.1089 31.1074C65.1255 31.2072 65.0091 31.2737 64.9259 31.2571C64.2107 31.1739 61.5495 30.7914 61.3333 29.4607ZM78.5646 17.1692C73.8077 16.5372 76.8349 13.8594 76.6353 12.0963C81.7914 12.9279 78.1488 14.7076 78.5646 17.1692ZM72.1777 29.4607C71.712 26.916 75.1383 19.3648 74.6227 17.4354C74.6061 17.3688 78.4648 17.0695 78.3983 19.1984C78.3484 20.5789 75.5874 26.0677 75.8203 29.81C77.0843 28.3963 78.5813 24.8202 78.864 24.1383C78.8807 24.0718 78.9472 24.0385 79.0304 24.0385C79.1468 24.0385 79.2299 24.1549 79.1967 24.2714C78.8141 25.5022 77.0012 30.8246 76.2028 31.2072C75.3878 31.5731 72.3939 30.7082 72.1777 29.4607ZM82.124 31.1905C81.5252 31.6064 78.8308 30.8745 78.2154 29.7601C77.417 28.3297 79.4129 21.0779 81.2425 18.7327C82.6729 16.9198 85.7666 17.3688 86.4984 17.8013C86.6814 17.9011 86.7479 18.0009 86.6481 18.2836C86.5317 18.5997 86.2988 18.5331 85.9329 18.4333C84.07 17.951 81.2758 28.1634 81.4587 30.2425L87.3966 17.6017C87.5961 17.0528 91.1223 17.9676 90.7896 18.6662C90.457 19.3648 88.0286 27.6478 87.9621 30.0096C89.2594 28.7622 90.906 24.8535 91.1888 24.1383C91.2221 24.0718 91.2886 24.0385 91.3551 24.0385C91.4715 24.0385 91.5713 24.1549 91.5214 24.2714C91.1389 25.5022 89.3093 31.1406 88.5775 31.2404C87.1138 31.44 84.6688 30.3922 84.4859 29.0782C84.3195 27.9638 85.2343 24.5209 86.0826 21.6933C84.6189 25.4856 82.4567 30.9577 82.124 31.1905Z" fill="#3C4242" fill-opacity="1.000000" fill-rule="evenodd"/>
	<path id="Vector" d="M0.210205 33.6259L22.6135 33.6259" stroke="#333333" stroke-opacity="1.000000" stroke-width="0.420324" stroke-linejoin="round" stroke-linecap="round"/>
	<path id="Vector" d="M32.1958 33.6259L91.2463 33.6259" stroke="#3C4242" stroke-opacity="1.000000" stroke-width="0.420324" stroke-linejoin="round" stroke-linecap="round"/>
	<path id="Vector" d="M40.1606 41.2617C39.9971 41.2617 39.8081 41.1972 39.5923 41.0689C39.3772 40.9398 39.1482 40.7693 38.907 40.5565C38.666 40.3438 38.4285 40.1125 38.1943 39.8622C37.9607 39.6125 37.7449 39.3636 37.5483 39.1155C37.3516 38.8682 37.1865 38.6477 37.0527 38.4549L35.9729 40.7862C35.9207 40.8999 35.8391 40.9806 35.7278 41.0274C35.6165 41.0742 35.4958 41.1027 35.366 41.1127C35.2361 41.1227 35.1079 41.1273 34.9819 41.1273C35.0779 40.989 35.177 40.83 35.2769 40.6518C35.3774 40.4736 35.4958 40.2585 35.6333 40.0058C35.7708 39.7531 35.9321 39.4466 36.1179 39.0848C36.304 38.7238 36.5244 38.2913 36.781 37.7889C37.0366 37.2866 37.3394 36.6967 37.6887 36.0184C37.7112 35.9785 37.741 35.9232 37.7778 35.8517C37.8147 35.7803 37.834 35.7142 37.834 35.6551C37.834 35.6005 37.8157 35.5575 37.7778 35.5253C37.741 35.493 37.6704 35.4769 37.5667 35.4769C37.3884 35.4769 37.2156 35.5253 37.0491 35.6213C36.8823 35.7173 36.7334 35.8402 36.6035 35.9892C36.4736 36.1375 36.3716 36.2911 36.2969 36.4493C36.2224 36.6076 36.1855 36.7489 36.1855 36.8726C36.1855 36.967 36.2041 37.0508 36.241 37.1253C35.9958 37.1253 35.823 37.0846 35.7231 37.0031C35.6226 36.9217 35.5725 36.8211 35.5725 36.702C35.5725 36.5338 35.6465 36.3656 35.7954 36.1974C35.9436 36.0291 36.135 35.874 36.3691 35.7334C36.6035 35.5921 36.8484 35.4799 37.1042 35.3954C37.3601 35.3117 37.592 35.2695 37.8003 35.2695C38.0007 35.2695 38.136 35.3063 38.2065 35.3809C38.2773 35.4554 38.3125 35.5368 38.3125 35.6259C38.3125 35.6804 38.3035 35.735 38.2849 35.7895C38.2664 35.844 38.2458 35.8963 38.2234 35.9454L37.2878 37.9648C37.3916 37.8658 37.5276 37.7744 37.6943 37.6898C37.8608 37.6061 38.0452 37.5093 38.2458 37.4003C38.5798 37.2221 38.9377 37.0139 39.3203 36.7766C39.7029 36.5392 40.0686 36.2888 40.4172 36.0269C40.7659 35.7642 41.0557 35.5122 41.2861 35.2695C41.323 35.2994 41.3491 35.3509 41.3643 35.4254C41.3789 35.4999 41.3867 35.5568 41.3867 35.5959C41.3867 35.7495 41.2922 35.9178 41.1025 36.1006C40.9126 36.2834 40.666 36.4731 40.3621 36.6682C40.0579 36.8641 39.7236 37.0569 39.3596 37.2474C38.9954 37.4379 38.6375 37.6176 38.2849 37.7859C37.9324 37.9541 37.6143 38.1 37.3325 38.2237C37.5552 38.4764 37.7725 38.7161 37.9839 38.9442C38.1951 39.1716 38.4255 39.3943 38.6743 39.6125C38.9233 39.8307 39.2144 40.0534 39.5486 40.2808C39.8826 40.5081 40.2874 40.7532 40.7622 41.0159C40.71 41.0804 40.6284 41.1372 40.5171 41.1864C40.4058 41.2371 40.2866 41.2617 40.1606 41.2617Z" fill="#3C4242" fill-opacity="1.000000" fill-rule="nonzero"/>
	<path id="Vector" d="M46.1194 40.9796C45.6663 40.9796 45.3306 40.8882 45.1116 40.7046C44.8926 40.5218 44.7827 40.3013 44.7827 40.044C44.4631 40.3259 44.0962 40.5464 43.6804 40.7046C43.2649 40.8628 42.8447 40.942 42.4224 40.942C41.969 40.942 41.6296 40.859 41.4031 40.6931C41.1765 40.5272 41.0635 40.3228 41.0635 40.0809C41.0635 39.8581 41.1472 39.623 41.314 39.3757C41.4814 39.1284 41.7041 38.8956 41.9822 38.6775C42.2603 38.4601 42.5667 38.2827 42.9009 38.1467C43.2351 38.0107 43.5652 37.9424 43.8926 37.9424C44.063 37.9424 44.2212 37.9724 44.3657 38.0315C44.511 38.0906 44.583 38.212 44.583 38.3956C44.583 38.5838 44.4993 38.7604 44.3328 38.9264C44.166 39.0923 43.9463 39.2398 43.676 39.368C43.4048 39.4971 43.1074 39.6016 42.7849 39.6837C42.4622 39.7659 42.1404 39.8159 41.8215 39.8358C41.8071 39.8858 41.7954 39.9326 41.7878 39.9772C41.78 40.0217 41.7764 40.064 41.7764 40.1031C41.7764 40.2022 41.8025 40.2998 41.8547 40.3966C41.906 40.4933 41.9951 40.5725 42.1221 40.6339C42.248 40.6961 42.4263 40.7269 42.6565 40.7269C43.0498 40.7269 43.4402 40.6339 43.8264 40.4488C44.2122 40.2629 44.55 40.034 44.8396 39.7621C44.9065 39.5593 45.0256 39.3565 45.196 39.153C45.3665 38.9502 45.5732 38.7658 45.8145 38.5999C46.0557 38.434 46.3176 38.3003 46.5994 38.1989C46.8813 38.0975 47.1677 38.0468 47.4575 38.0468C47.6279 38.0468 47.7861 38.0768 47.9307 38.136C48.075 38.1951 48.1479 38.3165 48.1479 38.5001C48.1479 38.7528 48.0198 38.974 47.7639 39.1645C47.5081 39.355 47.1794 39.5071 46.7783 39.6215C46.3774 39.7352 45.9658 39.8074 45.5425 39.8366C45.5278 39.8865 45.5164 39.9334 45.5088 39.9779C45.501 40.0225 45.4971 40.0647 45.4971 40.1039C45.4971 40.203 45.521 40.3044 45.5693 40.4081C45.6177 40.5118 45.7031 40.597 45.8252 40.6639C45.948 40.7307 46.124 40.7637 46.3545 40.7637C46.6738 40.7637 46.9927 40.7007 47.3123 40.5748C47.6318 40.4488 47.9282 40.2829 48.2034 40.077C48.4783 39.8719 48.708 39.6499 48.8938 39.4126L49.0276 39.4794C48.8269 39.7767 48.5688 40.0378 48.2532 40.2629C47.9375 40.488 47.5964 40.6639 47.2285 40.7899C46.8599 40.9166 46.4902 40.9796 46.1194 40.9796ZM41.8762 39.6945C42.0767 39.6499 42.3032 39.5847 42.5552 39.4979C42.8079 39.411 43.0505 39.3089 43.2849 39.1898C43.5193 39.0708 43.7119 38.9402 43.864 38.7965C44.0161 38.6529 44.0923 38.5023 44.0923 38.3434C44.0923 38.2888 44.0776 38.2466 44.0476 38.2174C44.0178 38.1874 43.9548 38.1728 43.8586 38.1728C43.6804 38.1728 43.4907 38.2189 43.2903 38.3103C43.0898 38.4017 42.897 38.5215 42.7112 38.6706C42.5251 38.8188 42.3586 38.9824 42.2095 39.1606C42.0613 39.3381 41.95 39.5163 41.8762 39.6945ZM45.5962 39.6945C45.7966 39.6499 46.0156 39.5908 46.2537 39.5163C46.4912 39.4418 46.7178 39.3542 46.9336 39.2528C47.1487 39.1514 47.3269 39.0354 47.4683 38.9041C47.6086 38.7727 47.6794 38.6283 47.6794 38.4701C47.6794 38.4156 47.6609 38.3695 47.6233 38.3326C47.5864 38.2957 47.5195 38.2773 47.4229 38.2773C47.1855 38.2773 46.9458 38.3464 46.7046 38.4854C46.4634 38.6237 46.2446 38.8011 46.0471 39.0162C45.8506 39.2305 45.7 39.4572 45.5962 39.6945Z" fill="#3C4242" fill-opacity="1.000000" fill-rule="nonzero"/>
	<path id="Vector" d="M47.958 42.6948C47.8989 42.6948 47.8413 42.6741 47.7852 42.6318C47.729 42.5896 47.6868 42.545 47.6567 42.4982C47.627 42.4513 47.6123 42.4229 47.6123 42.4129C47.7161 42.1702 47.8181 41.9536 47.9187 41.7631C48.0195 41.5726 48.1194 41.3767 48.22 41.1762C48.3198 40.9757 48.4189 40.7407 48.5149 40.4711C48.6116 40.2014 48.7114 39.8658 48.8159 39.4648C48.9197 39.0638 49.0242 38.5661 49.1279 37.9723C49.1355 37.9278 49.1501 37.8955 49.1724 37.8755C49.1946 37.8556 49.25 37.8456 49.3391 37.8456C49.532 37.8456 49.6694 37.8817 49.7515 37.9531C49.833 38.0246 49.8738 38.1029 49.8738 38.1866C49.8738 38.2558 49.8513 38.3794 49.8069 38.5576C49.7622 38.7358 49.6992 38.9463 49.6179 39.1891C49.7439 39.0254 49.9021 38.8595 50.0911 38.6913C50.28 38.5231 50.4973 38.3817 50.7424 38.2681C50.9875 38.1544 51.2549 38.0975 51.5444 38.0975C51.8708 38.0975 52.1404 38.1759 52.3518 38.3311C52.563 38.487 52.6689 38.6913 52.6689 38.944C52.6689 39.1368 52.6038 39.3412 52.4739 39.5562C52.344 39.7713 52.1619 39.9749 51.9285 40.1653C51.6948 40.3558 51.4177 40.511 51.0989 40.6293C50.7793 40.7484 50.4268 40.8075 50.0413 40.8075C49.8477 40.8075 49.6924 40.7929 49.5732 40.763C49.4543 40.733 49.3953 40.7038 49.3953 40.6739C49.3953 40.6539 49.4229 40.6431 49.4788 40.64C49.5349 40.6378 49.5994 40.6362 49.6741 40.6362C49.9712 40.6362 50.2546 40.5878 50.5259 40.491C50.7969 40.3943 51.0398 40.2668 51.2556 40.1085C51.4707 39.9503 51.6396 39.7744 51.7625 39.5816C51.8848 39.3888 51.946 39.1983 51.946 39.0101C51.946 38.8518 51.8962 38.7166 51.7957 38.6053C51.6958 38.4939 51.5337 38.4386 51.3108 38.4386C51.1182 38.4386 50.9268 38.4793 50.7371 38.5607C50.5474 38.6422 50.3691 38.7466 50.2024 38.8726C50.0349 38.9986 49.8867 39.1299 49.7568 39.2659C49.6272 39.4018 49.5288 39.5247 49.4619 39.633C49.3284 40.004 49.1946 40.362 49.061 40.7061C48.9272 41.0502 48.7991 41.3621 48.677 41.6417C48.554 41.9213 48.4434 42.1502 48.3428 42.3284C48.2429 42.5066 48.1592 42.6157 48.0923 42.6549C48.054 42.6825 48.0095 42.6948 47.958 42.6948Z" fill="#3C4242" fill-opacity="1.000000" fill-rule="nonzero"/>
	<path id="Vector" d="M56.7122 40.8083C56.4226 40.8083 56.2068 40.7476 56.0662 40.6263C55.9248 40.5049 55.855 40.3574 55.855 40.1846C55.855 40.0709 55.8865 39.9272 55.9495 39.7537C56.0125 39.5808 56.0962 39.3988 56.2 39.2083C56.3035 39.0178 56.4241 38.838 56.5618 38.6698C56.6992 38.5016 56.8459 38.3641 57.0017 38.2573C57.1577 38.1513 57.3098 38.0976 57.4587 38.0976C57.5256 38.0976 57.5833 38.1114 57.6316 38.1383C57.6802 38.1652 57.7039 38.2066 57.7039 38.2604C57.7039 38.3195 57.6462 38.4163 57.531 38.55C57.4158 38.6837 57.2805 38.8373 57.1248 39.0101C56.9688 39.1837 56.8335 39.365 56.7183 39.5555C56.603 39.746 56.5457 39.928 56.5457 40.1016C56.5457 40.2798 56.5901 40.3989 56.6792 40.458C56.7683 40.5172 56.9058 40.5471 57.0918 40.5471C57.3445 40.5471 57.6133 40.4634 57.8989 40.2944C58.1848 40.1262 58.4873 39.832 58.8069 39.4111L58.9067 39.4856C58.6917 39.9111 58.3813 40.2383 57.9766 40.4657C57.571 40.6946 57.1501 40.8083 56.7122 40.8083ZM58.0481 37.4078C57.929 37.4078 57.8237 37.3878 57.7307 37.3486C57.6379 37.3087 57.5918 37.2472 57.5918 37.1628C57.5918 37.0591 57.6824 36.9684 57.8645 36.8916C58.0464 36.8148 58.2263 36.7764 58.4045 36.7764C58.5159 36.7764 58.605 36.794 58.6716 36.8286C58.7385 36.8632 58.7715 36.9231 58.7715 37.0068C58.7715 37.1005 58.6956 37.1912 58.5435 37.278C58.3921 37.3647 58.2271 37.4078 58.0481 37.4078Z" fill="#3C4242" fill-opacity="1.000000" fill-rule="nonzero"/>
	<path id="Vector" d="M59.5403 40.9573C59.2207 40.9573 58.9756 40.8951 58.8052 40.7714C58.6345 40.6478 58.5493 40.4649 58.5493 40.2222C58.5493 40.0048 58.6108 39.736 58.7329 39.4164C58.855 39.0969 59.0095 38.7697 59.1953 38.4325C59.1208 38.4225 59.051 38.414 58.9841 38.4063C58.9172 38.3987 58.8542 38.3879 58.7952 38.3733L58.7952 38.2397C58.8542 38.2443 58.925 38.2496 59.0063 38.2542C59.0879 38.2589 59.1807 38.2642 59.2844 38.2688C59.4404 38.0015 59.6079 37.7427 59.7852 37.493C59.9634 37.2434 60.1401 37.0206 60.3145 36.8247C60.4888 36.6296 60.6562 36.4729 60.8162 36.357C60.9758 36.241 61.1111 36.1826 61.2224 36.1826C61.2815 36.1826 61.3354 36.1964 61.3838 36.2233C61.4321 36.2502 61.4561 36.2917 61.4561 36.3454C61.4561 36.4299 61.3784 36.5667 61.2224 36.7579C61.0664 36.9484 60.8738 37.175 60.6433 37.437C60.4128 37.6996 60.1899 37.9839 59.9749 38.2911C60.0417 38.2911 60.1101 38.2911 60.1809 38.2911C60.2515 38.2911 60.3198 38.2911 60.3867 38.2911C60.6318 38.2911 60.8899 38.2888 61.1609 38.2834C61.4321 38.2788 61.7048 38.2658 61.9797 38.2466L61.9797 38.3802C61.571 38.4102 61.2056 38.4325 60.8828 38.4471C60.5603 38.4616 60.2722 38.4693 60.0195 38.4693C59.9895 38.4693 59.9619 38.4693 59.9358 38.4693C59.9097 38.4693 59.8821 38.4693 59.8521 38.4693C59.6816 38.732 59.5364 39.0016 59.418 39.2789C59.2991 39.5562 59.24 39.8258 59.24 40.0886C59.24 40.3013 59.2883 40.4534 59.3843 40.5448C59.4802 40.6362 59.6401 40.6823 59.8635 40.6823C60.25 40.6823 60.6287 40.5686 60.9998 40.3405C61.3706 40.1131 61.697 39.8036 61.9797 39.4126L62.1243 39.4871C61.946 39.7644 61.7209 40.014 61.4507 40.2368C61.1794 40.4596 60.8806 40.6355 60.5542 40.7637C60.2268 40.8928 59.8896 40.9573 59.5403 40.9573Z" fill="#3C4242" fill-opacity="1.000000" fill-rule="nonzero"/>
	<path id="Vector" d="M65.8557 41.031C65.4993 41.031 65.2019 40.9519 64.9646 40.7937C64.7273 40.6355 64.6082 40.3981 64.6082 40.0809C64.6082 39.8335 64.6804 39.5923 64.8254 39.3565C64.97 39.1215 65.1611 38.9102 65.3994 38.722C65.6367 38.5338 65.9001 38.3841 66.1897 38.2727C66.4792 38.1613 66.7651 38.106 67.0479 38.106C67.3521 38.106 67.5601 38.1651 67.6714 38.2842C67.783 38.4033 67.8381 38.5269 67.8381 38.6552C67.8381 38.7989 67.7883 38.9248 67.6875 39.0339C67.5876 39.143 67.4519 39.1975 67.2812 39.1975C67.1553 39.1975 67.0479 39.1606 66.9578 39.0861C67.0693 39.047 67.166 38.9663 67.2476 38.8449C67.3289 38.7236 67.3704 38.6083 67.3704 38.4993C67.3704 38.4401 67.3535 38.394 67.3206 38.3618C67.2866 38.3295 67.2222 38.3134 67.1252 38.3134C66.9248 38.3134 66.719 38.3725 66.5071 38.4916C66.2957 38.6107 66.0984 38.7635 65.917 38.9517C65.7351 39.1399 65.5867 39.3381 65.4714 39.5455C65.3562 39.7536 65.2988 39.9487 65.2988 40.1323C65.2988 40.2859 65.3547 40.4265 65.4661 40.5556C65.5776 40.6838 65.7927 40.7484 66.1121 40.7484C66.4094 40.7484 66.7083 40.6938 67.0085 40.5847C67.3088 40.4757 67.5894 40.3198 67.8496 40.117C68.1094 39.9142 68.3174 39.6761 68.4734 39.4041L68.6179 39.4786C68.4473 39.7759 68.2129 40.0417 67.9165 40.2767C67.6191 40.5118 67.2927 40.6961 66.9363 40.8298C66.5791 40.9642 66.219 41.031 65.8557 41.031Z" fill="#3C4242" fill-opacity="1.000000" fill-rule="nonzero"/>
	<path id="Vector" d="M69.186 40.8382C68.8665 40.8382 68.6382 40.7653 68.5007 40.6193C68.3633 40.4734 68.2949 40.2913 68.2949 40.0739C68.2949 39.8366 68.3618 39.5539 68.4954 39.2274C68.6292 38.901 68.8057 38.5569 69.0247 38.1951C69.2437 37.8341 69.4832 37.4815 69.7429 37.1366C70.0024 36.7925 70.2622 36.4799 70.5225 36.1972C70.7822 35.9153 71.0217 35.6894 71.2407 35.5212C71.4597 35.353 71.6326 35.2685 71.7585 35.2685C71.8398 35.2685 71.9067 35.2992 71.959 35.3615C72.0112 35.4236 72.0518 35.4974 72.0818 35.5842C72.1111 35.671 72.1265 35.7486 72.1265 35.8177C72.1265 35.9514 72.0764 36.1257 71.9758 36.3416C71.876 36.5566 71.7346 36.7971 71.5525 37.0621C71.3706 37.3271 71.1555 37.5944 70.9065 37.864C70.6577 38.1336 70.3865 38.3925 70.094 38.6398C69.8005 38.8872 69.491 39.0999 69.1636 39.2782C69.1191 39.4118 69.0837 39.5416 69.0576 39.6684C69.0315 39.7943 69.0186 39.9149 69.0186 40.0286C69.0186 40.2214 69.0593 40.3651 69.1406 40.4595C69.2222 40.5533 69.345 40.6009 69.5085 40.6009C69.709 40.6009 69.908 40.5417 70.1047 40.4227C70.3013 40.3036 70.4871 40.1538 70.6616 39.9733C70.8359 39.7928 70.9866 39.6061 71.1125 39.4126L71.2791 39.4717C70.9819 39.8927 70.6592 40.2253 70.3098 40.4703C69.9617 40.7161 69.5869 40.8382 69.186 40.8382ZM69.2644 39.0262C69.5239 38.8526 69.7766 38.6537 70.0217 38.4286C70.2666 38.2036 70.4949 37.9693 70.7068 37.7273C70.9189 37.4846 71.1062 37.2495 71.269 37.0222C71.4319 36.7948 71.5588 36.5905 71.6477 36.4099C71.7368 36.2294 71.7815 36.0896 71.7815 35.9905C71.7815 35.9414 71.7722 35.9091 71.7539 35.8938C71.7354 35.8792 71.7185 35.8715 71.7039 35.8715C71.6448 35.8715 71.5425 35.9345 71.3975 36.0605C71.2529 36.1864 71.084 36.3562 70.8904 36.5689C70.6978 36.7817 70.501 37.0244 70.3005 37.2964C70.1001 37.5683 69.9087 37.8533 69.7268 38.1505C69.5439 38.447 69.3904 38.7397 69.2644 39.0262Z" fill="#3C4242" fill-opacity="1.000000" fill-rule="nonzero"/>
	<path id="Vector" d="M71.4246 40.9642C71.1941 40.9642 70.999 40.9135 70.8401 40.8121C70.6802 40.7107 70.6003 40.5563 70.6003 40.3482C70.6003 40.17 70.6594 39.9779 70.7786 39.7729C70.8967 39.5677 71.0605 39.3642 71.2686 39.1637C71.4768 38.9632 71.7126 38.7804 71.9761 38.6145C72.2395 38.4486 72.5176 38.3165 72.8118 38.2174C73.1052 38.1183 73.3962 38.0691 73.686 38.0691C73.9756 38.0691 74.2168 38.1198 74.4094 38.2212C74.6023 38.3226 74.6992 38.4578 74.6992 38.626C74.6992 38.7497 74.6492 38.8342 74.5486 38.8787C74.448 38.9233 74.3167 38.9456 74.1531 38.9456C74.1675 38.9056 74.1807 38.8626 74.1921 38.8157C74.2036 38.7689 74.209 38.7259 74.209 38.6859C74.209 38.5722 74.1682 38.4747 74.0869 38.3925C74.0046 38.3111 73.8643 38.2704 73.6636 38.2704C73.4556 38.2704 73.2441 38.3188 73.0283 38.4148C72.8132 38.5116 72.6052 38.6398 72.4048 38.8011C72.2041 38.9625 72.0261 39.1368 71.8701 39.325C71.7141 39.5132 71.592 39.6991 71.5022 39.8819C71.4131 40.0647 71.3684 40.2283 71.3684 40.372C71.3684 40.5648 71.4683 40.6616 71.6697 40.6616C71.8401 40.6616 72.0259 40.6086 72.2266 40.5018C72.427 40.3958 72.6328 40.2591 72.8447 40.0932C73.0562 39.9272 73.2588 39.7552 73.4517 39.577C73.6445 39.3988 73.8157 39.2351 73.9641 39.0869C73.9932 39.0569 74.0125 39.0424 74.0193 39.0424C74.064 39.047 74.1216 39.0569 74.1921 39.0723C74.2627 39.0869 74.3242 39.1069 74.3757 39.1314C74.428 39.156 74.4541 39.1883 74.4541 39.2282C74.4541 39.2728 74.4202 39.3335 74.3535 39.4103C74.2866 39.4871 74.2122 39.5747 74.1306 39.6738C74.0486 39.7728 73.9749 39.8735 73.908 39.9749C73.8411 40.0763 73.8081 40.1715 73.8081 40.2606C73.8081 40.3351 73.8372 40.4081 73.8972 40.4795C73.9563 40.5517 74.0532 40.5871 74.1868 40.5871C74.3872 40.5871 74.6506 40.4895 74.9773 40.2936C75.3037 40.0985 75.6348 39.8051 75.9688 39.4134L76.0803 39.4879C75.9243 39.7552 75.7239 39.9902 75.4788 40.193C75.2336 40.3958 74.9717 40.5548 74.6938 40.6685C74.4158 40.7822 74.1421 40.839 73.875 40.839C73.5999 40.839 73.3979 40.7845 73.2681 40.6754C73.1382 40.5663 73.073 40.448 73.073 40.319C73.073 40.289 73.0769 40.256 73.0845 40.2191C73.0913 40.1823 73.0991 40.1439 73.1067 40.1039C72.7871 40.3912 72.4961 40.6063 72.2327 40.7499C71.9685 40.8928 71.6987 40.9642 71.4246 40.9642Z" fill="#3C4242" fill-opacity="1.000000" fill-rule="nonzero"/>
	<path id="Vector" d="M76.9153 40.9942C76.5667 40.9942 76.29 40.9435 76.0857 40.8421C75.8813 40.7407 75.7371 40.6155 75.6509 40.4672C75.5657 40.319 75.5227 40.17 75.5227 40.0217C75.5227 39.8735 75.5527 39.759 75.6118 39.6799C75.6716 39.6008 75.7439 39.5416 75.8291 39.5017C75.9146 39.4617 75.9958 39.4326 76.0742 39.4126C76.1526 39.3926 76.2056 39.3727 76.2356 39.3534C76.4583 39.1898 76.6626 39.0193 76.8484 38.8411C77.0344 38.6629 77.1973 38.4747 77.3386 38.2765L77.3386 38.1874C77.3386 38.0046 77.3848 37.874 77.4775 37.7972C77.5706 37.7204 77.6689 37.682 77.7725 37.682C77.8318 37.682 77.8762 37.692 77.9062 37.7119C77.9363 37.7319 77.9507 37.7542 77.9507 37.7787C77.9507 37.8033 77.9399 37.8433 77.9177 37.8978C77.8955 37.9524 77.884 38.0215 77.884 38.106C77.884 38.2696 77.9324 38.4463 78.0283 38.6368C78.1252 38.8273 78.2212 39.0277 78.3179 39.2382C78.4141 39.4487 78.4624 39.6676 78.4624 39.895C78.4624 39.9595 78.457 40.0225 78.4456 40.0839C78.4348 40.1461 78.4177 40.2038 78.3955 40.2583C78.6553 40.2283 78.9001 40.1508 79.1306 40.0248C79.3611 39.8988 79.5837 39.6968 79.7988 39.4195L79.8987 39.494C79.7573 39.7659 79.5461 39.9726 79.2644 40.1139C78.9824 40.2552 78.6736 40.3428 78.3394 40.3773C78.2205 40.5901 78.033 40.7461 77.7771 40.8452C77.5222 40.945 77.2341 40.9942 76.9153 40.9942ZM76.9375 40.7346C77.0266 40.7346 77.1458 40.7146 77.2939 40.6754C77.4424 40.6355 77.5574 40.5341 77.6396 40.3712C77.3279 40.332 77.0513 40.2498 76.8101 40.1262C76.5688 40.0025 76.3884 39.8788 76.27 39.7552C76.1064 39.7606 76.0251 39.8466 76.0251 40.0148C76.0251 40.193 76.105 40.3574 76.2646 40.5087C76.4229 40.6585 76.6479 40.7346 76.9375 40.7346ZM77.6951 40.2514C77.7095 40.2022 77.7212 40.15 77.728 40.0955C77.7356 40.0409 77.7395 39.9764 77.7395 39.9026C77.7395 39.6699 77.6965 39.4387 77.6113 39.2083C77.5259 38.9778 77.4539 38.7612 77.3938 38.5584C77.2234 38.7466 77.0427 38.9264 76.854 39.0969C76.665 39.2674 76.4844 39.4103 76.314 39.524C76.4253 39.6822 76.5981 39.8312 76.8315 39.9695C77.0659 40.1085 77.3533 40.2022 77.6951 40.2514Z" fill="#3C4242" fill-opacity="1.000000" fill-rule="nonzero"/>
	<path id="Vector" d="M80.7573 40.9942C80.4087 40.9942 80.1321 40.9435 79.9277 40.8421C79.7234 40.7407 79.5791 40.6155 79.4929 40.4672C79.4077 40.319 79.3647 40.17 79.3647 40.0217C79.3647 39.8735 79.3948 39.759 79.4539 39.6799C79.5137 39.6008 79.5859 39.5416 79.6711 39.5017C79.7566 39.4617 79.8379 39.4326 79.9163 39.4126C79.9946 39.3926 80.0476 39.3727 80.0776 39.3534C80.3003 39.1898 80.5046 39.0193 80.6904 38.8411C80.8765 38.6629 81.0393 38.4747 81.1807 38.2765L81.1807 38.1874C81.1807 38.0046 81.2268 37.874 81.3196 37.7972C81.4126 37.7204 81.511 37.682 81.6145 37.682C81.6738 37.682 81.7183 37.692 81.7483 37.7119C81.7783 37.7319 81.7927 37.7542 81.7927 37.7787C81.7927 37.8033 81.782 37.8433 81.7598 37.8978C81.7375 37.9524 81.7261 38.0215 81.7261 38.106C81.7261 38.2696 81.7744 38.4463 81.8704 38.6368C81.9673 38.8273 82.0632 39.0277 82.1599 39.2382C82.2561 39.4487 82.3044 39.6676 82.3044 39.895C82.3044 39.9595 82.2991 40.0225 82.2876 40.0839C82.2769 40.1461 82.2598 40.2038 82.2375 40.2583C82.4973 40.2283 82.7422 40.1508 82.9727 40.0248C83.2031 39.8988 83.4258 39.6968 83.6409 39.4195L83.7407 39.494C83.5994 39.7659 83.3882 39.9726 83.1064 40.1139C82.8245 40.2552 82.5156 40.3428 82.1814 40.3773C82.0625 40.5901 81.875 40.7461 81.6191 40.8452C81.365 40.945 81.0769 40.9942 80.7573 40.9942ZM80.7795 40.7346C80.8687 40.7346 80.9878 40.7146 81.136 40.6754C81.2844 40.6355 81.3994 40.5341 81.4817 40.3712C81.1699 40.332 80.8933 40.2498 80.6521 40.1262C80.4109 40.0025 80.2305 39.8788 80.1121 39.7552C79.9485 39.7606 79.8672 39.8466 79.8672 40.0148C79.8672 40.193 79.947 40.3574 80.1067 40.5087C80.2659 40.6585 80.49 40.7346 80.7795 40.7346ZM81.5371 40.2514C81.5515 40.2022 81.5632 40.15 81.5701 40.0955C81.5776 40.0409 81.5815 39.9764 81.5815 39.9026C81.5815 39.6699 81.5386 39.4387 81.4534 39.2083C81.3679 38.9778 81.2959 38.7612 81.2358 38.5584C81.0654 38.7466 80.8848 38.9264 80.6958 39.0969C80.5071 39.2674 80.3264 39.4103 80.156 39.524C80.2673 39.6822 80.4402 39.8312 80.6736 39.9695C80.908 40.1085 81.196 40.2022 81.5371 40.2514Z" fill="#3C4242" fill-opacity="1.000000" fill-rule="nonzero"/>
	<path id="Vector" d="M83.9102 42.6948C83.7241 42.6948 83.5613 42.6618 83.4199 42.595C83.2786 42.5281 83.208 42.4306 83.208 42.3015C83.208 42.1433 83.2678 42.002 83.3862 41.8783C83.5044 41.7546 83.6643 41.641 83.8655 41.5365C84.0659 41.4328 84.2957 41.3337 84.5562 41.2392C84.8157 41.1455 85.0869 41.051 85.3687 40.9573C85.4724 40.7745 85.5784 40.5702 85.686 40.3451C85.7935 40.1201 85.8958 39.8712 85.9924 39.5992C85.7551 39.8566 85.501 40.0778 85.2297 40.2637C84.9585 40.4496 84.6707 40.5417 84.3665 40.5417C84.2251 40.5417 84.0859 40.521 83.9485 40.4788C83.811 40.4365 83.698 40.3712 83.6089 40.2821C83.5198 40.193 83.4753 40.0793 83.4753 39.9403C83.4753 39.802 83.5107 39.6407 83.5813 39.4579C83.6521 39.2751 83.7388 39.0969 83.8433 38.9233C83.947 38.7505 84.0544 38.6068 84.1667 38.4924C84.2788 38.3779 84.3748 38.3218 84.4563 38.3218C84.4861 38.3218 84.54 38.3295 84.6174 38.3441C84.6958 38.3587 84.7695 38.3802 84.8403 38.4071C84.9109 38.4348 84.9463 38.4632 84.9463 38.4924C84.8794 38.5569 84.8049 38.6483 84.7236 38.7674C84.6414 38.8864 84.5623 39.0185 84.4839 39.1645C84.4062 39.3104 84.3411 39.4525 84.2888 39.5916C84.2366 39.7298 84.2112 39.8489 84.2112 39.948C84.2112 40.0371 84.2405 40.1085 84.3003 40.1631C84.3594 40.2176 84.4639 40.2445 84.6121 40.2445C84.7527 40.2445 84.9109 40.1992 85.0852 40.107C85.2598 40.0156 85.4341 39.898 85.6091 39.7544C85.7834 39.6108 85.9448 39.4572 86.094 39.2943C86.1162 39.2397 86.1362 39.1844 86.1553 39.1276C86.1738 39.0708 86.1907 39.0124 86.2053 38.9532C86.2275 38.8841 86.2812 38.8035 86.3665 38.7121C86.4519 38.6206 86.5879 38.5746 86.7729 38.5746C86.8098 38.5746 86.8467 38.5761 86.8843 38.5784C86.9211 38.5807 86.9619 38.5869 87.0063 38.5968C87.0063 38.676 86.9712 38.8234 86.9004 39.0385C86.8298 39.2536 86.7292 39.5055 86.5994 39.7921C86.4695 40.0793 86.3152 40.3735 86.137 40.6754C86.4856 40.5863 86.8274 40.4388 87.1616 40.2337C87.4958 40.0286 87.7668 39.7544 87.9744 39.4134L88.1187 39.4879C88.0073 39.7252 87.8384 39.9319 87.6118 40.1078C87.385 40.2837 87.1309 40.4342 86.8489 40.5609C86.5671 40.6869 86.2883 40.7922 86.0132 40.8766C85.8203 41.1931 85.6108 41.4904 85.384 41.7677C85.1575 42.045 84.9202 42.2693 84.6714 42.4398C84.4241 42.6096 84.1697 42.6948 83.9102 42.6948ZM83.854 42.4567C83.9653 42.4567 84.1528 42.3592 84.4163 42.1633C84.6797 41.9674 84.9602 41.6248 85.2573 41.1347C84.9531 41.2438 84.6704 41.3513 84.4109 41.4581C84.1514 41.5641 83.9431 41.6794 83.7871 41.8038C83.6313 41.9275 83.5537 42.0711 83.5537 42.2347C83.5537 42.2747 83.5759 42.3215 83.6206 42.3761C83.665 42.4298 83.7427 42.4567 83.854 42.4567Z" fill="#3C4242" fill-opacity="1.000000" fill-rule="nonzero"/>
	<path id="Vector" d="M88.2087 40.69C88.1118 40.69 88.0291 40.6739 87.9583 40.6416C87.8877 40.6093 87.8523 40.5587 87.8523 40.4895C87.8523 40.435 87.8853 40.3843 87.9521 40.3374C88.019 40.2906 88.1028 40.2529 88.2026 40.226C88.3025 40.1992 88.4006 40.1853 88.4976 40.1853C88.5867 40.1853 88.6572 40.1976 88.7087 40.2222C88.7603 40.2468 88.7864 40.2944 88.7864 40.3636C88.7864 40.4135 88.7588 40.4626 88.7026 40.5118C88.6465 40.5609 88.5742 40.6032 88.4854 40.6378C88.3962 40.6723 88.3054 40.69 88.2087 40.69Z" fill="#3C4242" fill-opacity="1.000000" fill-rule="nonzero"/>
</svg>
