<svg width="15.669678" height="15.669739" viewBox="0 0 15.6697 15.6697" fill="none" xmlns="http://www.w3.org/2000/svg" xmlns:xlink="http://www.w3.org/1999/xlink">
	<desc>
			Created with Pixso.
	</desc>
	<defs/>
	<path id="Icon" d="M6.58325 13.1667Q5.24438 13.1667 4.02051 12.649Q2.83911 12.1493 1.92822 11.2385Q1.01733 10.3277 0.517578 9.14609Q0 7.92221 0 6.58334Q0 5.24445 0.517578 4.02057Q1.01733 2.83902 1.92822 1.92822Q2.83911 1.01743 4.02051 0.51767Q5.24438 0 6.58325 0Q7.92212 0 9.146 0.51767Q10.3276 1.01743 11.2385 1.92822Q12.1492 2.83902 12.6489 4.02057Q13.1667 5.24445 13.1667 6.58334Q13.1667 7.92221 12.6489 9.14609Q12.1492 10.3277 11.2385 11.2385Q10.3276 12.1493 9.146 12.649Q7.92212 13.1667 6.58325 13.1667ZM6.58325 11.6667Q7.61792 11.6667 8.56177 11.2675Q9.47388 10.8817 10.1777 10.1778Q10.8818 9.47388 11.2676 8.56177Q11.6667 7.61804 11.6667 6.58334Q11.6667 5.54865 11.2676 4.60489Q10.8818 3.69281 10.1777 2.98886Q9.47388 2.28494 8.56177 1.89917Q7.61792 1.5 6.58325 1.5Q5.54858 1.5 4.60498 1.89917Q3.69287 2.28494 2.98877 2.98886Q2.28491 3.69278 1.89917 4.60489Q1.5 5.54865 1.5 6.58334Q1.5 7.61804 1.89917 8.56177Q2.28491 9.47388 2.98877 10.1778Q3.69287 10.8817 4.60498 11.2675Q5.54858 11.6667 6.58325 11.6667ZM11.2803 10.2197L15.447 14.3864L14.3862 15.447L10.2197 11.2803L11.2803 10.2197ZM15.4187 14.3864L15.447 14.3864C15.7439 14.6833 15.7439 15.15 15.447 15.447C15.1499 15.744 14.6833 15.744 14.3862 15.447L14.3862 15.4187L15.4187 14.3864Z" fill="#807D7E" fill-opacity="1.000000" fill-rule="evenodd"/>
</svg>
